<?xml version="1.0" encoding="UTF-8" standalone="no"?>
<!DOCTYPE svg PUBLIC "-//W3C//DTD SVG 1.1//EN" "http://www.w3.org/Graphics/SVG/1.1/DTD/svg11.dtd">
<!-- 由 Microsoft Visio, SVG Export 生成 shunt-rlc-Q.svg Page-1 -->
<svg xmlns="http://www.w3.org/2000/svg" xmlns:xlink="http://www.w3.org/1999/xlink" xmlns:ev="http://www.w3.org/2001/xml-events"
		xmlns:v="http://schemas.microsoft.com/visio/2003/SVGExtensions/" width="2.06693in" height="1.41732in"
		viewBox="0 0 148.819 102.047" xml:space="preserve" color-interpolation-filters="sRGB" class="st9">
	<v:documentProperties v:langID="2052" v:metric="true" v:viewMarkup="false">
		<v:userDefs>
			<v:ud v:nameU="msvNoAutoConnect" v:val="VT0(1):26"/>
		</v:userDefs>
	</v:documentProperties>

	<style type="text/css">
	<![CDATA[
		.st1 {stroke:#000000;stroke-linecap:butt;stroke-width:1.25}
		.st2 {stroke:#000000;stroke-linecap:round;stroke-linejoin:round;stroke-width:1.25}
		.st3 {fill:none;stroke:none;stroke-linecap:round;stroke-linejoin:round;stroke-width:1.25}
		.st4 {fill:#000000;font-family:Arial Narrow;font-size:1.00001em;font-weight:bold}
		.st5 {baseline-shift:-32.4941%;font-size:0.649882em}
		.st6 {fill:#ffffff;stroke:#000000;stroke-linecap:round;stroke-linejoin:round;stroke-width:1.25}
		.st7 {stroke:#000000;stroke-linecap:round;stroke-linejoin:round;stroke-width:1.2}
		.st8 {stroke:#000000;stroke-linecap:butt;stroke-width:2.16}
		.st9 {fill:none;fill-rule:evenodd;font-size:12px;overflow:visible;stroke-linecap:square;stroke-miterlimit:3}
	]]>
	</style>

	<g v:mID="0" v:index="1" v:groupContext="foregroundPage">
		<title>页-1</title>
		<v:pageProperties v:drawingScale="0.0393701" v:pageScale="0.0393701" v:drawingUnits="24" v:shadowOffsetX="8.50394"
				v:shadowOffsetY="-8.50394"/>
		<v:layer v:name="连接线" v:index="0"/>
		<v:layer v:name="电气" v:index="1"/>
		<g id="group391-1" transform="translate(39.685,-55.1488)" v:mID="391" v:groupContext="group">
			<title>resistor.391</title>
			<g id="shape392-2" v:mID="392" v:groupContext="shape" transform="translate(0,-4.52892)">
				<title>R.75</title>
				<path d="M7.09 87.87 L0 88.85 L14.17 91.3 L0 93.74 L14.17 96.18 L0 98.63 L14.17 101.07 L7.09 102.05" class="st1"/>
			</g>
			<g id="shape393-5" v:mID="393" v:groupContext="shape" transform="translate(-94.9606,97.3228) rotate(-90) scale(-1,1)">
				<title>Inductor.64</title>
				<path d="M0 102.05 L4.72 102.05" class="st2"/>
			</g>
			<g id="shape394-8" v:mID="394" v:groupContext="shape" transform="translate(-94.9606,78.6207) rotate(-90) scale(-1,1)">
				<title>Inductor.6</title>
				<path d="M0 102.05 L4.72 102.05" class="st2"/>
			</g>
		</g>
		<g id="shape402-11" v:mID="402" v:groupContext="shape" transform="translate(13.2913,-55.1488)">
			<title>工作表.402</title>
			<desc>Rs</desc>
			<v:textBlock v:margins="rect(4,4,4,4)" v:tabSpace="42.5197"/>
			<v:textRect cx="16.7402" cy="92.0472" width="33.49" height="20"/>
			<rect x="0" y="82.0472" width="33.4803" height="20" class="st3"/>
			<text x="11.41" y="95.65" class="st4" v:langID="2052"><v:paragraph v:horizAlign="1"/><v:tabList/>R<tspan dy="-0.389em"
						class="st5" v:baseFontSize="12">s</tspan></text>		</g>
		<g id="group451-15" transform="translate(98.0934,-37.6804) scale(-1,1)" v:mID="451" v:groupContext="group">
			<title>resistor.451</title>
			<g id="shape452-16" v:mID="452" v:groupContext="shape" transform="translate(0,-4.52892)">
				<title>R.75</title>
				<path d="M7.09 87.87 L0 88.85 L14.17 91.3 L0 93.74 L14.17 96.18 L0 98.63 L14.17 101.07 L7.09 102.05" class="st1"/>
			</g>
			<g id="shape453-19" v:mID="453" v:groupContext="shape" transform="translate(-94.9606,97.3228) rotate(-90) scale(-1,1)">
				<title>Inductor.64</title>
				<path d="M0 102.05 L4.72 102.05" class="st2"/>
			</g>
			<g id="shape454-22" v:mID="454" v:groupContext="shape" transform="translate(-94.9606,78.6207) rotate(-90) scale(-1,1)">
				<title>Inductor.6</title>
				<path d="M0 102.05 L4.72 102.05" class="st2"/>
			</g>
		</g>
		<g id="shape455-25" v:mID="455" v:groupContext="shape" v:layerMember="0" transform="translate(91.0068,-61.208)">
			<title>动态连接线.455</title>
			<path d="M0 102.05 L-0 86.5 L26.86 86.5" class="st2"/>
		</g>
		<g id="shape457-28" v:mID="457" v:groupContext="shape" transform="translate(91.3162,-39.3937) scale(-1,1)">
			<title>工作表.457</title>
			<desc>Rp</desc>
			<v:textBlock v:margins="rect(4,4,4,4)" v:tabSpace="42.5197"/>
			<v:textRect cx="16.7402" cy="92.0472" width="33.49" height="20"/>
			<rect x="0" y="82.0472" width="33.4803" height="20" class="st3"/>
			<text x="-22.24" y="95.65" transform="scale(-1,1)" class="st4" v:langID="2052"><v:paragraph v:horizAlign="1"/><v:tabList/>R<tspan
						dy="-0.389em" class="st5" v:baseFontSize="12">p</tspan></text>		</g>
		<g id="shape461-32" v:mID="461" v:groupContext="shape" v:layerMember="0" transform="translate(91.0068,-38.6237)">
			<title>动态连接线.461</title>
			<path d="M0 102.99 L0 115.28 L26.98 115.28" class="st2"/>
		</g>
		<g id="shape462-35" v:mID="462" v:groupContext="shape" transform="translate(13.2913,-27.1488)">
			<title>工作表.462</title>
			<desc>Ls</desc>
			<v:textBlock v:margins="rect(4,4,4,4)" v:tabSpace="42.5197"/>
			<v:textRect cx="16.7402" cy="92.0472" width="33.49" height="20"/>
			<rect x="0" y="82.0472" width="33.4803" height="20" class="st3"/>
			<text x="11.96" y="95.65" class="st4" v:langID="2052"><v:paragraph v:horizAlign="1"/><v:tabList/>L<tspan dy="-0.389em"
						class="st5" v:baseFontSize="12">s</tspan></text>		</g>
		<g id="shape463-39" v:mID="463" v:groupContext="shape" transform="translate(115.613,-39.3937)">
			<title>工作表.463</title>
			<desc>Cp</desc>
			<v:textBlock v:margins="rect(4,4,4,4)" v:tabSpace="42.5197"/>
			<v:textRect cx="16.7402" cy="92.0472" width="33.49" height="20"/>
			<rect x="0" y="82.0472" width="33.4803" height="20" class="st3"/>
			<text x="11.24" y="95.65" class="st4" v:langID="2052"><v:paragraph v:horizAlign="1"/><v:tabList/>C<tspan dy="-0.389em"
						class="st5" v:baseFontSize="12">p</tspan></text>		</g>
		<g id="shape500-43" v:mID="500" v:groupContext="shape" transform="translate(148.819,46.8985) rotate(90)">
			<title>工作表.500</title>
			<path d="M0 102.05 L6.96 102.05" class="st2"/>
		</g>
		<g id="shape501-46" v:mID="501" v:groupContext="shape" transform="translate(148.791,85.0394) rotate(90)">
			<title>工作表.501</title>
			<path d="M0 102.05 L8.15 102.05" class="st2"/>
		</g>
		<g id="shape503-49" v:mID="503" v:groupContext="shape" transform="translate(219.914,25.288) rotate(90)">
			<title>工作表.503</title>
			<path d="M0 102.05 L20.28 102.05" class="st2"/>
		</g>
		<g id="shape504-52" v:mID="504" v:groupContext="shape" transform="translate(219.914,59.7402) rotate(90)">
			<title>工作表.504</title>
			<path d="M0 102.05 L16.42 102.05" class="st2"/>
		</g>
		<g id="shape505-55" v:mID="505" v:groupContext="shape" transform="translate(-55.2756,23.3709) rotate(-90)">
			<title>工作表.505</title>
			<path d="M0 102.05 L14.99 102.05" class="st2"/>
		</g>
		<g id="shape506-58" v:mID="506" v:groupContext="shape" transform="translate(205.74,76.6587) rotate(90)">
			<title>工作表.506</title>
			<path d="M0 102.05 L16.88 102.05" class="st2"/>
		</g>
		<g id="shape507-61" v:mID="507" v:groupContext="shape" transform="translate(1.92939,25.288) rotate(-90)">
			<title>工作表.507</title>
			<path d="M0 102.05 L16.91 102.05" class="st2"/>
		</g>
		<g id="shape509-64" v:mID="509" v:groupContext="shape" transform="translate(26.2205,-91.5441)">
			<title>point2.13</title>
			<path d="M0 99.92 A2.12598 2.12598 0 1 1 4.25 99.92 A2.12598 2.12598 0 1 1 0 99.92 Z" class="st6"/>
		</g>
		<g id="shape511-66" v:mID="511" v:groupContext="shape" transform="translate(26.2205,-6.37795)">
			<title>point2.511</title>
			<path d="M0 99.92 A2.12598 2.12598 0 1 1 4.25 99.92 A2.12598 2.12598 0 1 1 0 99.92 Z" class="st6"/>
		</g>
		<g id="group513-68" transform="translate(53.3854,-17.0079) scale(-1,1)" v:mID="513" v:groupContext="group">
			<title>inductor</title>
			<g id="shape514-69" v:mID="514" v:groupContext="shape" transform="translate(13.2468,-19.8425) scale(-1,1)">
				<title>工作表.514</title>
				<path d="M-0 100.16 A3.30709 1.88976 -180 0 0 3.31 102.05 A9.92126 3.77953 -180 0 0 13.23 98.27" class="st7"/>
			</g>
			<g id="shape515-72" v:mID="515" v:groupContext="shape" transform="translate(13.2468,180.472) rotate(180)">
				<title>工作表.515</title>
				<path d="M-0 100.16 A2.48031 1.88976 -180 0 0 2.48 102.05 A10.748 5.66929 -180 0 0 13.23 96.38" class="st7"/>
			</g>
			<g id="shape516-75" v:mID="516" v:groupContext="shape" transform="translate(13.2468,-14.1732) scale(-1,1)">
				<title>工作表.516</title>
				<path d="M-0 100.16 A3.30709 1.88976 -180 0 0 3.31 102.05 A9.92126 3.77953 -180 0 0 13.23 98.27" class="st7"/>
			</g>
			<g id="shape517-78" v:mID="517" v:groupContext="shape" transform="translate(13.2468,186.142) rotate(180)">
				<title>工作表.517</title>
				<path d="M-0 100.16 A2.48031 1.88976 -180 0 0 2.48 102.05 A10.748 5.66929 -180 0 0 13.23 96.38" class="st7"/>
			</g>
			<g id="shape518-81" v:mID="518" v:groupContext="shape" transform="translate(13.2468,-8.50394) scale(-1,1)">
				<title>工作表.518</title>
				<path d="M-0 100.16 A3.30709 1.88976 -180 0 0 3.31 102.05 A9.92126 3.77953 -180 0 0 13.23 98.27" class="st7"/>
			</g>
			<g id="shape519-84" v:mID="519" v:groupContext="shape"
					transform="translate(-33.5658,-18.2057) rotate(-23.1986) scale(-1,1)">
				<title>工作表.519</title>
				<path d="M-0 102.05 A7.35843 3.82191 140.58 0 1 7.2 102.05" class="st7"/>
			</g>
			<g id="shape520-87" v:mID="520" v:groupContext="shape" transform="translate(108.68,75.5906) rotate(90) scale(-1,1)">
				<title>工作表.520</title>
				<path d="M0 102.05 L4.72 102.05" class="st7"/>
			</g>
			<g id="shape521-90" v:mID="521" v:groupContext="shape" transform="translate(-95.4146,97.3228) rotate(-90) scale(-1,1)">
				<title>工作表.521</title>
				<path d="M0 102.05 L4.72 102.05" class="st7"/>
			</g>
			<g id="shape522-93" v:mID="522" v:groupContext="shape" transform="translate(13.2468,191.811) rotate(180)">
				<title>工作表.522</title>
				<path d="M-0 100.16 A3.30709 1.88976 -180 0 0 3.31 102.05 A9.92126 3.77953 -180 0 0 13.23 98.27" class="st7"/>
			</g>
			<g id="shape523-96" v:mID="523" v:groupContext="shape"
					transform="translate(52.4101,7.93309) rotate(27.2161) scale(-1,1)">
				<title>工作表.523</title>
				<path d="M0 100.09 A7.28362 4.81686 -122.35 0 0 7.44 100.09" class="st7"/>
			</g>
		</g>
		<g id="group524-99" transform="translate(110.78,-42.3071)" v:mID="524" v:groupContext="group">
			<title>capacitor</title>
			<g id="group525-100" transform="translate(0,-4.8189)" v:mID="525" v:groupContext="group">
				<title>CAP.76</title>
				<g id="shape526-101" v:mID="526" v:groupContext="shape" transform="translate(0,-4.53543)">
					<title>工作表.526</title>
					<path d="M0 102.05 L14.17 102.05" class="st8"/>
				</g>
				<g id="shape527-104" v:mID="527" v:groupContext="shape">
					<title>工作表.527</title>
					<path d="M0 102.05 L14.17 102.05" class="st8"/>
				</g>
			</g>
			<g id="shape528-107" v:mID="528" v:groupContext="shape" transform="translate(109.134,87.874) rotate(90)">
				<title>工作表.528</title>
				<path d="M0 102.05 L3.9 102.05" class="st7"/>
			</g>
			<g id="shape529-110" v:mID="529" v:groupContext="shape" transform="translate(-94.9606,102.047) rotate(-90)">
				<title>工作表.529</title>
				<path d="M0 102.05 L3.9 102.05" class="st7"/>
			</g>
		</g>
		<g id="shape532-113" v:mID="532" v:groupContext="shape" transform="translate(103.977,110.424) rotate(180)">
			<title>工作表.532</title>
			<path d="M0 102.05 L73.5 102.05" class="st2"/>
		</g>
		<g id="shape533-116" v:mID="533" v:groupContext="shape" transform="translate(103.693,195.591) rotate(180)">
			<title>工作表.533</title>
			<path d="M0 102.05 L73.22 102.05" class="st2"/>
		</g>
	</g>
</svg>
