<?xml version="1.0" encoding="UTF-8" standalone="no"?>
<!DOCTYPE svg PUBLIC "-//W3C//DTD SVG 1.1//EN" "http://www.w3.org/Graphics/SVG/1.1/DTD/svg11.dtd">
<!-- 由 Microsoft Visio, SVG Export 生成 mcr.svg Page-1 -->
<svg xmlns="http://www.w3.org/2000/svg" xmlns:xlink="http://www.w3.org/1999/xlink" xmlns:ev="http://www.w3.org/2001/xml-events"
		xmlns:v="http://schemas.microsoft.com/visio/2003/SVGExtensions/" width="4.13386in" height="1.6063in"
		viewBox="0 0 297.638 115.654" xml:space="preserve" color-interpolation-filters="sRGB" class="st13">
	<v:documentProperties v:langID="2052" v:metric="true" v:viewMarkup="false">
		<v:userDefs>
			<v:ud v:nameU="msvNoAutoConnect" v:val="VT0(1):26"/>
		</v:userDefs>
	</v:documentProperties>

	<style type="text/css">
	<![CDATA[
		.st1 {stroke:#000000;stroke-linecap:butt;stroke-width:1.25}
		.st2 {stroke:#000000;stroke-linecap:round;stroke-linejoin:round;stroke-width:1.25}
		.st3 {fill:none;stroke:none;stroke-linecap:round;stroke-linejoin:round;stroke-width:1.25}
		.st4 {fill:#000000;font-family:Arial Narrow;font-size:1.00001em;font-weight:bold}
		.st5 {baseline-shift:-32.4941%;font-size:0.649882em}
		.st6 {fill:#000000;stroke:#000000;stroke-linecap:round;stroke-linejoin:round;stroke-width:0.75}
		.st7 {marker-end:url(#mrkr1-118);marker-start:url(#mrkr1-116);stroke:#000000;stroke-linecap:round;stroke-linejoin:round;stroke-width:0.75}
		.st8 {fill:#000000;fill-opacity:1;stroke:#000000;stroke-opacity:1;stroke-width:0.29411764705882}
		.st9 {stroke:#000000;stroke-linecap:round;stroke-linejoin:round;stroke-width:1.2}
		.st10 {fill:#ffffff;stroke:#000000;stroke-linecap:round;stroke-linejoin:round;stroke-width:1.25}
		.st11 {marker-start:url(#mrkr1-236);stroke:#000000;stroke-linecap:round;stroke-linejoin:round;stroke-width:1.25}
		.st12 {fill:#000000;fill-opacity:1;stroke:#000000;stroke-opacity:1;stroke-width:0.3315649867374}
		.st13 {fill:none;fill-rule:evenodd;font-size:12px;overflow:visible;stroke-linecap:square;stroke-miterlimit:3}
	]]>
	</style>

	<defs id="Markers">
		<g id="lend1">
			<path d="M 1 -1 L 0 0 L 1 1 " style="stroke-linecap:round;stroke-linejoin:round;fill:none"/>
		</g>
		<marker id="mrkr1-116" class="st8" v:arrowType="1" v:arrowSize="1" orient="auto" markerUnits="strokeWidth"
				overflow="visible">
			<use xlink:href="#lend1" transform="scale(3.4) "/>
		</marker>
		<marker id="mrkr1-118" class="st8" v:arrowType="1" v:arrowSize="1" orient="auto" markerUnits="strokeWidth"
				overflow="visible">
			<use xlink:href="#lend1" transform="scale(-3.4,-3.4) "/>
		</marker>
		<marker id="mrkr1-236" class="st12" v:arrowType="1" v:arrowSize="2" orient="auto" markerUnits="strokeWidth"
				overflow="visible">
			<use xlink:href="#lend1" transform="scale(3.016) "/>
		</marker>
	</defs>
	<g v:mID="0" v:index="1" v:groupContext="foregroundPage">
		<title>页-1</title>
		<v:pageProperties v:drawingScale="0.0393701" v:pageScale="0.0393701" v:drawingUnits="24" v:shadowOffsetX="8.50394"
				v:shadowOffsetY="-8.50394"/>
		<v:layer v:name="连接线" v:index="0"/>
		<g id="group385-1" transform="translate(188.236,-42.378)" v:mID="385" v:groupContext="group">
			<title>capacitor.385</title>
			<g id="group386-2" transform="translate(0,-4.8189)" v:mID="386" v:groupContext="group">
				<title>CAP.76</title>
				<g id="shape387-3" v:mID="387" v:groupContext="shape" transform="translate(0,-4.53543)">
					<title>工作表.387</title>
					<path d="M0 115.65 L14.17 115.65" class="st1"/>
				</g>
				<g id="shape388-6" v:mID="388" v:groupContext="shape">
					<title>工作表.388</title>
					<path d="M0 115.65 L14.17 115.65" class="st1"/>
				</g>
			</g>
			<g id="shape389-9" v:mID="389" v:groupContext="shape" transform="translate(122.74,101.48) rotate(90)">
				<title>工作表.389</title>
				<path d="M0 115.65 L3.9 115.65" class="st2"/>
			</g>
			<g id="shape390-12" v:mID="390" v:groupContext="shape" transform="translate(-108.567,115.654) rotate(-90)">
				<title>工作表.390</title>
				<path d="M0 115.65 L3.9 115.65" class="st2"/>
			</g>
		</g>
		<g id="group391-15" transform="translate(225.795,-37.7513)" v:mID="391" v:groupContext="group">
			<title>resistor.391</title>
			<g id="shape392-16" v:mID="392" v:groupContext="shape" transform="translate(0,-4.52892)">
				<title>R.75</title>
				<path d="M7.09 101.48 L0 102.46 L14.17 104.9 L0 107.35 L14.17 109.79 L0 112.23 L14.17 114.68 L7.09 115.65"
						class="st1"/>
			</g>
			<g id="shape393-19" v:mID="393" v:groupContext="shape" transform="translate(-108.567,110.929) rotate(-90) scale(-1,1)">
				<title>Inductor.64</title>
				<path d="M0 115.65 L4.72 115.65" class="st2"/>
			</g>
			<g id="shape394-22" v:mID="394" v:groupContext="shape" transform="translate(-108.567,92.227) rotate(-90) scale(-1,1)">
				<title>Inductor.6</title>
				<path d="M0 115.65 L4.72 115.65" class="st2"/>
			</g>
		</g>
		<g id="shape396-25" v:mID="396" v:groupContext="shape" v:layerMember="0" transform="translate(232.882,-61.2788)">
			<title>动态连接线.396</title>
			<path d="M0 115.65 L-0 100.54 L-36.85 100.54" class="st2"/>
		</g>
		<g id="shape401-28" v:mID="401" v:groupContext="shape" transform="translate(196.031,-39.4646)">
			<title>工作表.401</title>
			<desc>C2</desc>
			<v:textBlock v:margins="rect(4,4,4,4)" v:tabSpace="42.5197"/>
			<v:textRect cx="16.7402" cy="105.654" width="33.49" height="20"/>
			<rect x="0" y="95.6535" width="33.4803" height="20" class="st3"/>
			<text x="11.41" y="109.25" class="st4" v:langID="2052"><v:paragraph v:horizAlign="1"/><v:tabList/>C<tspan dy="-0.389em"
						class="st5" v:langID="1033" v:baseFontSize="12">2</tspan></text>		</g>
		<g id="shape402-32" v:mID="402" v:groupContext="shape" transform="translate(233.417,-39.4646)">
			<title>工作表.402</title>
			<desc>R2</desc>
			<v:textBlock v:margins="rect(4,4,4,4)" v:tabSpace="42.5197"/>
			<v:textRect cx="16.7402" cy="105.654" width="33.49" height="20"/>
			<rect x="0" y="95.6535" width="33.4803" height="20" class="st3"/>
			<text x="11.41" y="109.25" class="st4" v:langID="2052"><v:paragraph v:horizAlign="1"/><v:tabList/>R<tspan dy="-0.389em"
						class="st5" v:langID="1033" v:baseFontSize="12">2</tspan></text>		</g>
		<g id="shape439-36" v:mID="439" v:groupContext="shape" v:layerMember="0" transform="translate(188.591,-56.5512)">
			<title>动态连接线.439</title>
			<path d="M6.73 115.65 L6.73 95.81 L7.44 95.81" class="st2"/>
		</g>
		<g id="shape440-39" v:mID="440" v:groupContext="shape" v:layerMember="0" transform="translate(163.02,-62.9291)">
			<title>动态连接线.440</title>
			<path d="M0 114.94 L0 102.19 L32.3 102.19" class="st2"/>
		</g>
		<g id="shape443-42" v:mID="443" v:groupContext="shape" v:layerMember="0" transform="translate(195.323,-44.5039)">
			<title>动态连接线</title>
			<path d="M0 117.78 L-0 135.21 L-32.33 135.21 L-32.33 127.7" class="st2"/>
		</g>
		<g id="shape444-45" v:mID="444" v:groupContext="shape" v:layerMember="0" transform="translate(232.882,-38.4347)">
			<title>动态连接线.444</title>
			<path d="M0 116.34 L0 129.14 L-37.56 129.14" class="st2"/>
		</g>
		<g id="group445-48" transform="translate(105.591,-42.378) scale(-1,1)" v:mID="445" v:groupContext="group">
			<title>capacitor.445</title>
			<g id="group446-49" transform="translate(0,-4.8189)" v:mID="446" v:groupContext="group">
				<title>CAP.76</title>
				<g id="shape447-50" v:mID="447" v:groupContext="shape" transform="translate(0,-4.53543)">
					<title>工作表.447</title>
					<path d="M0 115.65 L14.17 115.65" class="st1"/>
				</g>
				<g id="shape448-53" v:mID="448" v:groupContext="shape">
					<title>工作表.448</title>
					<path d="M0 115.65 L14.17 115.65" class="st1"/>
				</g>
			</g>
			<g id="shape449-56" v:mID="449" v:groupContext="shape" transform="translate(122.74,101.48) rotate(90)">
				<title>工作表.449</title>
				<path d="M0 115.65 L3.9 115.65" class="st2"/>
			</g>
			<g id="shape450-59" v:mID="450" v:groupContext="shape" transform="translate(-108.567,115.654) rotate(-90)">
				<title>工作表.450</title>
				<path d="M0 115.65 L3.9 115.65" class="st2"/>
			</g>
		</g>
		<g id="group451-62" transform="translate(68.0315,-37.7513) scale(-1,1)" v:mID="451" v:groupContext="group">
			<title>resistor.451</title>
			<g id="shape452-63" v:mID="452" v:groupContext="shape" transform="translate(0,-4.52892)">
				<title>R.75</title>
				<path d="M7.09 101.48 L0 102.46 L14.17 104.9 L0 107.35 L14.17 109.79 L0 112.23 L14.17 114.68 L7.09 115.65"
						class="st1"/>
			</g>
			<g id="shape453-66" v:mID="453" v:groupContext="shape" transform="translate(-108.567,110.929) rotate(-90) scale(-1,1)">
				<title>Inductor.64</title>
				<path d="M0 115.65 L4.72 115.65" class="st2"/>
			</g>
			<g id="shape454-69" v:mID="454" v:groupContext="shape" transform="translate(-108.567,92.227) rotate(-90) scale(-1,1)">
				<title>Inductor.6</title>
				<path d="M0 115.65 L4.72 115.65" class="st2"/>
			</g>
		</g>
		<g id="shape455-72" v:mID="455" v:groupContext="shape" v:layerMember="0" transform="translate(60.9449,-61.2788)">
			<title>动态连接线.455</title>
			<path d="M0 115.65 L0 100.54 L36.85 100.54" class="st2"/>
		</g>
		<g id="shape456-75" v:mID="456" v:groupContext="shape" transform="translate(97.7953,-39.4646) scale(-1,1)">
			<title>工作表.456</title>
			<desc>C1</desc>
			<v:textBlock v:margins="rect(4,4,4,4)" v:tabSpace="42.5197"/>
			<v:textRect cx="16.7402" cy="105.654" width="33.49" height="20"/>
			<rect x="0" y="95.6535" width="33.4803" height="20" class="st3"/>
			<text x="-22.07" y="109.25" transform="scale(-1,1)" class="st4" v:langID="2052"><v:paragraph v:horizAlign="1"/><v:tabList/>C<tspan
						dy="-0.389em" class="st5" v:langID="1033" v:baseFontSize="12">1</tspan></text>		</g>
		<g id="shape457-79" v:mID="457" v:groupContext="shape" transform="translate(60.4094,-39.4646) scale(-1,1)">
			<title>工作表.457</title>
			<desc>R1</desc>
			<v:textBlock v:margins="rect(4,4,4,4)" v:tabSpace="42.5197"/>
			<v:textRect cx="16.7402" cy="105.654" width="33.49" height="20"/>
			<rect x="0" y="95.6535" width="33.4803" height="20" class="st3"/>
			<text x="-22.07" y="109.25" transform="scale(-1,1)" class="st4" v:langID="2052"><v:paragraph v:horizAlign="1"/><v:tabList/>R<tspan
						dy="-0.389em" class="st5" v:langID="1033" v:baseFontSize="12">1</tspan></text>		</g>
		<g id="shape458-83" v:mID="458" v:groupContext="shape" v:layerMember="0" transform="translate(105.236,-56.5512)">
			<title>动态连接线.458</title>
			<path d="M-6.73 115.65 L-6.73 95.81 L-7.44 95.81" class="st2"/>
		</g>
		<g id="shape459-86" v:mID="459" v:groupContext="shape" v:layerMember="0" transform="translate(130.863,-62.9291)">
			<title>动态连接线.459</title>
			<path d="M0 114.94 L0 102.19 L-32.36 102.19" class="st2"/>
		</g>
		<g id="shape460-89" v:mID="460" v:groupContext="shape" v:layerMember="0" transform="translate(98.5039,-44.5039)">
			<title>动态连接线.460</title>
			<path d="M0 117.78 L0 135.21 L32.33 135.21 L32.33 127.7" class="st2"/>
		</g>
		<g id="shape461-92" v:mID="461" v:groupContext="shape" v:layerMember="0" transform="translate(60.9449,-38.4347)">
			<title>动态连接线.461</title>
			<path d="M0 116.34 L0 129.14 L37.56 129.14" class="st2"/>
		</g>
		<g id="shape462-95" v:mID="462" v:groupContext="shape" transform="translate(161.26,-39.4646)">
			<title>工作表.462</title>
			<desc>L2</desc>
			<v:textBlock v:margins="rect(4,4,4,4)" v:tabSpace="42.5197"/>
			<v:textRect cx="16.7402" cy="105.654" width="33.49" height="20"/>
			<rect x="0" y="95.6535" width="33.4803" height="20" class="st3"/>
			<text x="11.96" y="109.25" class="st4" v:langID="2052"><v:paragraph v:horizAlign="1"/><v:tabList/>L<tspan dy="-0.389em"
						class="st5" v:langID="1033" v:baseFontSize="12">2</tspan></text>		</g>
		<g id="shape463-99" v:mID="463" v:groupContext="shape" transform="translate(99.1969,-39.4646)">
			<title>工作表.463</title>
			<desc>L1</desc>
			<v:textBlock v:margins="rect(4,4,4,4)" v:tabSpace="42.5197"/>
			<v:textRect cx="16.7402" cy="105.654" width="33.49" height="20"/>
			<rect x="0" y="95.6535" width="33.4803" height="20" class="st3"/>
			<text x="11.96" y="109.25" class="st4" v:langID="2052"><v:paragraph v:horizAlign="1"/><v:tabList/>L<tspan dy="-0.389em"
						class="st5" v:langID="1033" v:baseFontSize="12">1</tspan></text>		</g>
		<g id="shape464-103" v:mID="464" v:groupContext="shape" transform="translate(130.394,-71.7165)">
			<title>工作表.464</title>
			<desc>M</desc>
			<v:textBlock v:margins="rect(4,4,4,4)" v:tabSpace="42.5197"/>
			<v:textRect cx="16.7402" cy="105.654" width="33.49" height="20"/>
			<rect x="0" y="95.6535" width="33.4803" height="20" class="st3"/>
			<text x="12.64" y="109.25" class="st4" v:langID="2052"><v:paragraph v:horizAlign="1"/><v:tabList/>M</text>		</g>
		<g id="shape465-106" v:mID="465" v:groupContext="shape" transform="translate(134.236,-63.6378)">
			<title>Node</title>
			<path d="M0 114.24 A1.41732 1.41732 0 1 1 2.83 114.24 A1.41732 1.41732 0 1 1 0 114.24 Z" class="st6"/>
		</g>
		<g id="shape466-108" v:mID="466" v:groupContext="shape" transform="translate(156.756,-63.6378)">
			<title>Node.466</title>
			<path d="M0 114.24 A1.41732 1.41732 0 1 1 2.83 114.24 A1.41732 1.41732 0 1 1 0 114.24 Z" class="st6"/>
		</g>
		<g id="shape471-110" v:mID="471" v:groupContext="shape" v:layerMember="0"
				transform="translate(157.323,-68.8819) scale(-1,1)">
			<title>直线连接线</title>
			<v:userDefs>
				<v:ud v:nameU="visVersion" v:val="VT0(15):26"/>
			</v:userDefs>
			<path d="M0 115.65 A12.1469 12.1469 0 0 1 20.55 115.65" class="st7"/>
		</g>
		<g id="group472-119" transform="translate(137.477,-32.4567) scale(-1,1)" v:mID="472" v:groupContext="group">
			<title>inductor</title>
			<g id="shape473-120" v:mID="473" v:groupContext="shape" transform="translate(13.2468,-19.8425) scale(-1,1)">
				<title>工作表.473</title>
				<path d="M-0 113.76 A3.30709 1.88976 -180 0 0 3.31 115.65 A9.92126 3.77953 -180 0 0 13.23 111.87" class="st9"/>
			</g>
			<g id="shape474-123" v:mID="474" v:groupContext="shape" transform="translate(13.2468,207.685) rotate(180)">
				<title>工作表.474</title>
				<path d="M-0 113.76 A2.48031 1.88976 -180 0 0 2.48 115.65 A10.748 5.66929 -180 0 0 13.23 109.98" class="st9"/>
			</g>
			<g id="shape475-126" v:mID="475" v:groupContext="shape" transform="translate(13.2468,-14.1732) scale(-1,1)">
				<title>工作表.475</title>
				<path d="M-0 113.76 A3.30709 1.88976 -180 0 0 3.31 115.65 A9.92126 3.77953 -180 0 0 13.23 111.87" class="st9"/>
			</g>
			<g id="shape476-129" v:mID="476" v:groupContext="shape" transform="translate(13.2468,213.354) rotate(180)">
				<title>工作表.476</title>
				<path d="M-0 113.76 A2.48031 1.88976 -180 0 0 2.48 115.65 A10.748 5.66929 -180 0 0 13.23 109.98" class="st9"/>
			</g>
			<g id="shape477-132" v:mID="477" v:groupContext="shape" transform="translate(13.2468,-8.50394) scale(-1,1)">
				<title>工作表.477</title>
				<path d="M-0 113.76 A3.30709 1.88976 -180 0 0 3.31 115.65 A9.92126 3.77953 -180 0 0 13.23 111.87" class="st9"/>
			</g>
			<g id="shape478-135" v:mID="478" v:groupContext="shape"
					transform="translate(-38.9255,-17.1055) rotate(-23.1986) scale(-1,1)">
				<title>工作表.478</title>
				<path d="M-0 115.65 A7.35843 3.82191 140.58 0 1 7.2 115.65" class="st9"/>
			</g>
			<g id="shape479-138" v:mID="479" v:groupContext="shape" transform="translate(122.286,89.1969) rotate(90) scale(-1,1)">
				<title>工作表.479</title>
				<path d="M0 115.65 L4.72 115.65" class="st9"/>
			</g>
			<g id="shape480-141" v:mID="480" v:groupContext="shape" transform="translate(-109.021,110.929) rotate(-90) scale(-1,1)">
				<title>工作表.480</title>
				<path d="M0 115.65 L4.72 115.65" class="st9"/>
			</g>
			<g id="shape481-144" v:mID="481" v:groupContext="shape" transform="translate(13.2468,219.024) rotate(180)">
				<title>工作表.481</title>
				<path d="M-0 113.76 A3.30709 1.88976 -180 0 0 3.31 115.65 A9.92126 3.77953 -180 0 0 13.23 111.87" class="st9"/>
			</g>
			<g id="shape482-147" v:mID="482" v:groupContext="shape"
					transform="translate(58.6329,9.43948) rotate(27.2161) scale(-1,1)">
				<title>工作表.482</title>
				<path d="M0 113.7 A7.28362 4.81686 -122.35 0 0 7.44 113.7" class="st9"/>
			</g>
		</g>
		<g id="group483-150" transform="translate(169.634,-32.4567) scale(-1,1)" v:mID="483" v:groupContext="group">
			<title>inductor.483</title>
			<g id="shape484-151" v:mID="484" v:groupContext="shape" transform="translate(13.2468,-19.8425) scale(-1,1)">
				<title>工作表.484</title>
				<path d="M-0 113.76 A3.30709 1.88976 -180 0 0 3.31 115.65 A9.92126 3.77953 -180 0 0 13.23 111.87" class="st9"/>
			</g>
			<g id="shape485-154" v:mID="485" v:groupContext="shape" transform="translate(13.2468,207.685) rotate(180)">
				<title>工作表.485</title>
				<path d="M-0 113.76 A2.48031 1.88976 -180 0 0 2.48 115.65 A10.748 5.66929 -180 0 0 13.23 109.98" class="st9"/>
			</g>
			<g id="shape486-157" v:mID="486" v:groupContext="shape" transform="translate(13.2468,-14.1732) scale(-1,1)">
				<title>工作表.486</title>
				<path d="M-0 113.76 A3.30709 1.88976 -180 0 0 3.31 115.65 A9.92126 3.77953 -180 0 0 13.23 111.87" class="st9"/>
			</g>
			<g id="shape487-160" v:mID="487" v:groupContext="shape" transform="translate(13.2468,213.354) rotate(180)">
				<title>工作表.487</title>
				<path d="M-0 113.76 A2.48031 1.88976 -180 0 0 2.48 115.65 A10.748 5.66929 -180 0 0 13.23 109.98" class="st9"/>
			</g>
			<g id="shape488-163" v:mID="488" v:groupContext="shape" transform="translate(13.2468,-8.50394) scale(-1,1)">
				<title>工作表.488</title>
				<path d="M-0 113.76 A3.30709 1.88976 -180 0 0 3.31 115.65 A9.92126 3.77953 -180 0 0 13.23 111.87" class="st9"/>
			</g>
			<g id="shape489-166" v:mID="489" v:groupContext="shape"
					transform="translate(-38.9255,-17.1055) rotate(-23.1986) scale(-1,1)">
				<title>工作表.489</title>
				<path d="M-0 115.65 A7.35843 3.82191 140.58 0 1 7.2 115.65" class="st9"/>
			</g>
			<g id="shape490-169" v:mID="490" v:groupContext="shape" transform="translate(122.286,89.1969) rotate(90) scale(-1,1)">
				<title>工作表.490</title>
				<path d="M0 115.65 L4.72 115.65" class="st9"/>
			</g>
			<g id="shape491-172" v:mID="491" v:groupContext="shape" transform="translate(-109.021,110.929) rotate(-90) scale(-1,1)">
				<title>工作表.491</title>
				<path d="M0 115.65 L4.72 115.65" class="st9"/>
			</g>
			<g id="shape492-175" v:mID="492" v:groupContext="shape" transform="translate(13.2468,219.024) rotate(180)">
				<title>工作表.492</title>
				<path d="M-0 113.76 A3.30709 1.88976 -180 0 0 3.31 115.65 A9.92126 3.77953 -180 0 0 13.23 111.87" class="st9"/>
			</g>
			<g id="shape493-178" v:mID="493" v:groupContext="shape"
					transform="translate(58.6329,9.43948) rotate(27.2161) scale(-1,1)">
				<title>工作表.493</title>
				<path d="M0 113.7 A7.28362 4.81686 -122.35 0 0 7.44 113.7" class="st9"/>
			</g>
		</g>
		<g id="group498-181" transform="translate(232.882,-22.8189)" v:mID="498" v:groupContext="group">
			<title>工作表.498</title>
			<g id="shape494-182" v:mID="494" v:groupContext="shape" transform="translate(29.3228,229.181) rotate(180)">
				<title>工作表.494</title>
				<path d="M0 115.65 L29.32 115.65" class="st2"/>
			</g>
			<g id="shape496-185" v:mID="496" v:groupContext="shape" transform="translate(27.9055,0)">
				<title>工作表.496</title>
				<ellipse cx="2.12598" cy="113.528" rx="2.12598" ry="2.12598" class="st10"/>
			</g>
		</g>
		<g id="group499-187" transform="translate(232.882,-74.2677)" v:mID="499" v:groupContext="group">
			<title>工作表.499</title>
			<g id="shape500-188" v:mID="500" v:groupContext="shape" transform="translate(29.3228,229.181) rotate(180)">
				<title>工作表.500</title>
				<path d="M0 115.65 L29.32 115.65" class="st2"/>
			</g>
			<g id="shape501-191" v:mID="501" v:groupContext="shape" transform="translate(27.9055,0)">
				<title>工作表.501</title>
				<ellipse cx="2.12598" cy="113.528" rx="2.12598" ry="2.12598" class="st10"/>
			</g>
		</g>
		<g id="group502-193" transform="translate(60.9449,-22.8189) scale(-1,1)" v:mID="502" v:groupContext="group">
			<title>工作表.502</title>
			<g id="shape503-194" v:mID="503" v:groupContext="shape" transform="translate(29.3228,229.181) rotate(180)">
				<title>工作表.503</title>
				<path d="M0 115.65 L29.32 115.65" class="st2"/>
			</g>
			<g id="shape504-197" v:mID="504" v:groupContext="shape" transform="translate(27.9055,0)">
				<title>工作表.504</title>
				<ellipse cx="2.12598" cy="113.528" rx="2.12598" ry="2.12598" class="st10"/>
			</g>
		</g>
		<g id="group505-199" transform="translate(60.9449,-74.2677) scale(-1,1)" v:mID="505" v:groupContext="group">
			<title>工作表.505</title>
			<g id="shape506-200" v:mID="506" v:groupContext="shape" transform="translate(29.3228,229.181) rotate(180)">
				<title>工作表.506</title>
				<path d="M0 115.65 L29.32 115.65" class="st2"/>
			</g>
			<g id="shape507-203" v:mID="507" v:groupContext="shape" transform="translate(27.9055,0)">
				<title>工作表.507</title>
				<ellipse cx="2.12598" cy="113.528" rx="2.12598" ry="2.12598" class="st10"/>
			</g>
		</g>
		<g id="shape508-205" v:mID="508" v:groupContext="shape" transform="translate(38,-39.4646) scale(-1,1)">
			<title>工作表.508</title>
			<desc>U1</desc>
			<v:textBlock v:margins="rect(4,4,4,4)" v:tabSpace="42.5197"/>
			<v:textRect cx="16.7402" cy="105.654" width="33.49" height="20"/>
			<rect x="0" y="95.6535" width="33.4803" height="20" class="st3"/>
			<text x="-22.07" y="109.25" transform="scale(-1,1)" class="st4" v:langID="1033"><v:paragraph v:horizAlign="1"/><v:tabList/>U<tspan
						dy="-0.389em" class="st5" v:baseFontSize="12">1</tspan></text>		</g>
		<g id="shape509-209" v:mID="509" v:groupContext="shape" transform="translate(288.598,-37.622) scale(-1,1)">
			<title>工作表.509</title>
			<desc>U2</desc>
			<v:textBlock v:margins="rect(4,4,4,4)" v:tabSpace="42.5197"/>
			<v:textRect cx="16.7402" cy="105.654" width="33.49" height="20"/>
			<rect x="0" y="95.6535" width="33.4803" height="20" class="st3"/>
			<text x="-22.07" y="109.25" transform="scale(-1,1)" class="st4" v:langID="1033"><v:paragraph v:horizAlign="1"/><v:tabList/>U<tspan
						dy="-0.389em" class="st5" v:baseFontSize="12">2</tspan></text>		</g>
		<g id="shape510-213" v:mID="510" v:groupContext="shape" transform="translate(265.039,-80.1417) scale(-1,1)">
			<title>工作表.510</title>
			<desc>I2</desc>
			<v:textBlock v:margins="rect(4,4,4,4)" v:tabSpace="42.5197"/>
			<v:textRect cx="16.7402" cy="105.654" width="33.49" height="20"/>
			<rect x="0" y="95.6535" width="33.4803" height="20" class="st3"/>
			<text x="-19.89" y="109.25" transform="scale(-1,1)" class="st4" v:langID="1033"><v:paragraph v:horizAlign="1"/><v:tabList/>I<tspan
						dy="-0.389em" class="st5" v:baseFontSize="12">2</tspan></text>		</g>
		<g id="shape511-217" v:mID="511" v:groupContext="shape" transform="translate(196.472,-80.1417) scale(-1,1)">
			<title>工作表.511</title>
			<desc>Ip2</desc>
			<v:textBlock v:margins="rect(4,4,4,4)" v:tabSpace="42.5197"/>
			<v:textRect cx="16.7402" cy="105.654" width="33.49" height="20"/>
			<rect x="0" y="95.6535" width="33.4803" height="20" class="st3"/>
			<text x="-21.84" y="109.25" transform="scale(-1,1)" class="st4" v:langID="1033"><v:paragraph v:horizAlign="1"/><v:tabList/>I<tspan
						dy="-0.389em" class="st5" v:baseFontSize="12">p</tspan><tspan class="st5" v:baseFontSize="12">2</tspan></text>		</g>
		<g id="shape513-222" v:mID="513" v:groupContext="shape" transform="translate(132.693,-80.1417) scale(-1,1)">
			<title>工作表.513</title>
			<desc>Ip2</desc>
			<v:textBlock v:margins="rect(4,4,4,4)" v:tabSpace="42.5197"/>
			<v:textRect cx="16.7402" cy="105.654" width="33.49" height="20"/>
			<rect x="0" y="95.6535" width="33.4803" height="20" class="st3"/>
			<text x="-21.84" y="109.25" transform="scale(-1,1)" class="st4" v:langID="1033"><v:paragraph v:horizAlign="1"/><v:tabList/>I<tspan
						dy="-0.389em" class="st5" v:baseFontSize="12">p</tspan><tspan class="st5" v:baseFontSize="12">2</tspan></text>		</g>
		<g id="shape514-227" v:mID="514" v:groupContext="shape" transform="translate(63.7795,-80.1417) scale(-1,1)">
			<title>工作表.514</title>
			<desc>I2</desc>
			<v:textBlock v:margins="rect(4,4,4,4)" v:tabSpace="42.5197"/>
			<v:textRect cx="16.7402" cy="105.654" width="33.49" height="20"/>
			<rect x="0" y="95.6535" width="33.4803" height="20" class="st3"/>
			<text x="-19.89" y="109.25" transform="scale(-1,1)" class="st4" v:langID="1033"><v:paragraph v:horizAlign="1"/><v:tabList/>I<tspan
						dy="-0.389em" class="st5" v:baseFontSize="12">2</tspan></text>		</g>
		<g id="shape515-231" v:mID="515" v:groupContext="shape" transform="translate(116.787,154.913) rotate(180)">
			<title>工作表.515</title>
			<path d="M0 115.65 L8.5 115.65" class="st11"/>
		</g>
		<g id="shape516-237" v:mID="516" v:groupContext="shape" transform="translate(48.9161,154.913) rotate(180)">
			<title>工作表.516</title>
			<path d="M0 115.65 L8.5 115.65" class="st11"/>
		</g>
		<g id="shape517-242" v:mID="517" v:groupContext="shape" transform="translate(175.465,154.913) scale(1,-1)">
			<title>工作表.517</title>
			<path d="M0 115.65 L8.5 115.65" class="st11"/>
		</g>
		<g id="shape518-247" v:mID="518" v:groupContext="shape" transform="translate(243.496,154.913) scale(1,-1)">
			<title>工作表.518</title>
			<path d="M0 115.65 L8.5 115.65" class="st11"/>
		</g>
		<g id="shape519-252" v:mID="519" v:groupContext="shape" transform="translate(38,-65.9685) scale(-1,1)">
			<title>工作表.519</title>
			<desc>+</desc>
			<v:textBlock v:margins="rect(4,4,4,4)" v:tabSpace="42.5197"/>
			<v:textRect cx="16.7402" cy="105.654" width="33.49" height="20"/>
			<rect x="0" y="95.6535" width="33.4803" height="20" class="st3"/>
			<text x="-19.61" y="109.25" transform="scale(-1,1)" class="st4" v:langID="1033"><v:paragraph v:horizAlign="1"/><v:tabList/>+</text>		</g>
		<g id="shape520-255" v:mID="520" v:groupContext="shape" transform="translate(288.598,-65.9685) scale(-1,1)">
			<title>工作表.520</title>
			<desc>+</desc>
			<v:textBlock v:margins="rect(4,4,4,4)" v:tabSpace="42.5197"/>
			<v:textRect cx="16.7402" cy="105.654" width="33.49" height="20"/>
			<rect x="0" y="95.6535" width="33.4803" height="20" class="st3"/>
			<text x="-19.61" y="109.25" transform="scale(-1,1)" class="st4" v:langID="1033"><v:paragraph v:horizAlign="1"/><v:tabList/>+</text>		</g>
		<g id="shape521-258" v:mID="521" v:groupContext="shape" transform="translate(38.0157,-15.3071) scale(-1,1)">
			<title>工作表.521</title>
			<desc>-</desc>
			<v:textBlock v:margins="rect(4,4,4,4)" v:tabSpace="42.5197"/>
			<v:textRect cx="16.7402" cy="105.654" width="33.49" height="20"/>
			<rect x="0" y="95.6535" width="33.4803" height="20" class="st3"/>
			<text x="-18.38" y="109.25" transform="scale(-1,1)" class="st4" v:langID="1033"><v:paragraph v:horizAlign="1"/><v:tabList/>-</text>		</g>
		<g id="shape522-261" v:mID="522" v:groupContext="shape" transform="translate(288.614,-15.3071) scale(-1,1)">
			<title>工作表.522</title>
			<desc>-</desc>
			<v:textBlock v:margins="rect(4,4,4,4)" v:tabSpace="42.5197"/>
			<v:textRect cx="16.7402" cy="105.654" width="33.49" height="20"/>
			<rect x="0" y="95.6535" width="33.4803" height="20" class="st3"/>
			<text x="-18.38" y="109.25" transform="scale(-1,1)" class="st4" v:langID="1033"><v:paragraph v:horizAlign="1"/><v:tabList/>-</text>		</g>
	</g>
</svg>
