<?xml version="1.0" encoding="UTF-8" standalone="no"?>
<!DOCTYPE svg PUBLIC "-//W3C//DTD SVG 1.1//EN" "http://www.w3.org/Graphics/SVG/1.1/DTD/svg11.dtd">
<!-- 由 Microsoft Visio, SVG Export 生成 ideal-model.svg Page-1 -->
<svg xmlns="http://www.w3.org/2000/svg" xmlns:xlink="http://www.w3.org/1999/xlink" xmlns:ev="http://www.w3.org/2001/xml-events"
		xmlns:v="http://schemas.microsoft.com/visio/2003/SVGExtensions/" width="3.54331in" height="1.9685in"
		viewBox="0 0 255.118 141.732" xml:space="preserve" color-interpolation-filters="sRGB" class="st14">
	<v:documentProperties v:langID="2052" v:metric="true" v:viewMarkup="false">
		<v:userDefs>
			<v:ud v:nameU="msvNoAutoConnect" v:val="VT0(1):26"/>
		</v:userDefs>
	</v:documentProperties>

	<style type="text/css">
	<![CDATA[
		.st1 {stroke:#000000;stroke-linecap:round;stroke-linejoin:round;stroke-width:1.25}
		.st2 {fill:none;stroke:none;stroke-linecap:round;stroke-linejoin:round;stroke-width:1.25}
		.st3 {fill:#000000;font-family:Calibri;font-size:1.00001em;font-weight:bold}
		.st4 {baseline-shift:-32.4941%;font-size:0.649882em}
		.st5 {fill:#000000;stroke:#000000;stroke-linecap:round;stroke-linejoin:round;stroke-width:0.75}
		.st6 {marker-end:url(#mrkr1-36);marker-start:url(#mrkr1-34);stroke:#000000;stroke-linecap:round;stroke-linejoin:round;stroke-width:0.75}
		.st7 {fill:#000000;fill-opacity:1;stroke:#000000;stroke-opacity:1;stroke-width:0.29411764705882}
		.st8 {stroke:#000000;stroke-linecap:round;stroke-linejoin:round;stroke-width:1.2}
		.st9 {marker-start:url(#mrkr4-104);stroke:#000000;stroke-linecap:round;stroke-linejoin:round;stroke-width:1.25}
		.st10 {fill:#000000;fill-opacity:1;stroke:#000000;stroke-opacity:1;stroke-width:0.3315649867374}
		.st11 {fill:none;stroke:none;stroke-linecap:round;stroke-linejoin:round;stroke-width:0.75}
		.st12 {fill:#000000;font-family:Calibri;font-size:1.00001em;font-style:italic;font-weight:bold}
		.st13 {fill:#000000;font-family:Calibri;font-size:0.833336em;font-weight:bold}
		.st14 {fill:none;fill-rule:evenodd;font-size:12px;overflow:visible;stroke-linecap:square;stroke-miterlimit:3}
	]]>
	</style>

	<defs id="Markers">
		<g id="lend1">
			<path d="M 1 -1 L 0 0 L 1 1 " style="stroke-linecap:round;stroke-linejoin:round;fill:none"/>
		</g>
		<marker id="mrkr1-34" class="st7" v:arrowType="1" v:arrowSize="1" orient="auto" markerUnits="strokeWidth"
				overflow="visible">
			<use xlink:href="#lend1" transform="scale(3.4) "/>
		</marker>
		<marker id="mrkr1-36" class="st7" v:arrowType="1" v:arrowSize="1" orient="auto" markerUnits="strokeWidth"
				overflow="visible">
			<use xlink:href="#lend1" transform="scale(-3.4,-3.4) "/>
		</marker>
		<g id="lend4">
			<path d="M 2 1 L 0 0 L 2 -1 L 2 1 " style="stroke:none"/>
		</g>
		<marker id="mrkr4-104" class="st10" v:arrowType="4" v:arrowSize="2" v:setback="5.744" refX="5.744" orient="auto"
				markerUnits="strokeWidth" overflow="visible">
			<use xlink:href="#lend4" transform="scale(3.016) "/>
		</marker>
	</defs>
	<g v:mID="0" v:index="1" v:groupContext="foregroundPage">
		<title>页-1</title>
		<v:pageProperties v:drawingScale="0.0393701" v:pageScale="0.0393701" v:drawingUnits="24" v:shadowOffsetX="8.50394"
				v:shadowOffsetY="-8.50394"/>
		<v:layer v:name="连接线" v:index="0"/>
		<g id="shape48-1" v:mID="48" v:groupContext="shape" v:layerMember="0" transform="translate(147.391,-74.252)">
			<title>动态连接线.440</title>
			<path d="M0 141.02 L0 128.27 L32.3 128.27" class="st1"/>
		</g>
		<g id="shape49-4" v:mID="49" v:groupContext="shape" v:layerMember="0" transform="translate(181.378,-32.937)">
			<title>动态连接线</title>
			<path d="M0 138.4 L-34.02 138.4 L-34.02 130.89" class="st1"/>
		</g>
		<g id="shape50-7" v:mID="50" v:groupContext="shape" v:layerMember="0" transform="translate(115.233,-74.252)">
			<title>动态连接线.466</title>
			<path d="M0 141.02 L0 128.27 L-32.36 128.27" class="st1"/>
		</g>
		<g id="shape51-10" v:mID="51" v:groupContext="shape" v:layerMember="0" transform="translate(82.1654,-32.937)">
			<title>动态连接线.460</title>
			<path d="M0 138.4 L33.04 138.4 L33.04 130.89" class="st1"/>
		</g>
		<g id="shape52-13" v:mID="52" v:groupContext="shape" transform="translate(145.63,-50.7874)">
			<title>工作表.52</title>
			<desc>Ls</desc>
			<v:textBlock v:margins="rect(4,4,4,4)" v:tabSpace="42.5197"/>
			<v:textRect cx="16.7402" cy="131.732" width="33.49" height="20"/>
			<rect x="0" y="121.732" width="33.4803" height="20" class="st2"/>
			<text x="12.65" y="135.33" class="st3" v:langID="2052"><v:paragraph v:horizAlign="1"/><v:tabList/>L<tspan dy="-0.284em"
						class="st4" v:baseFontSize="12">s</tspan></text>		</g>
		<g id="shape53-17" v:mID="53" v:groupContext="shape" transform="translate(83.5669,-50.7874)">
			<title>工作表.53</title>
			<desc>Lp</desc>
			<v:textBlock v:margins="rect(4,4,4,4)" v:tabSpace="42.5197"/>
			<v:textRect cx="16.7402" cy="131.732" width="33.49" height="20"/>
			<rect x="0" y="121.732" width="33.4803" height="20" class="st2"/>
			<text x="12.11" y="135.33" class="st3" v:langID="2052"><v:paragraph v:horizAlign="1"/><v:tabList/>L<tspan dy="-0.284em"
						class="st4" v:baseFontSize="12">p</tspan></text>		</g>
		<g id="shape54-21" v:mID="54" v:groupContext="shape" transform="translate(114.764,-83.0394)">
			<title>工作表.54</title>
			<desc>M</desc>
			<v:textBlock v:margins="rect(4,4,4,4)" v:tabSpace="42.5197"/>
			<v:textRect cx="16.7402" cy="131.732" width="33.49" height="20"/>
			<rect x="0" y="121.732" width="33.4803" height="20" class="st2"/>
			<text x="11.5" y="135.33" class="st3" v:langID="2052"><v:paragraph v:horizAlign="1"/><v:tabList/>M</text>		</g>
		<g id="shape55-24" v:mID="55" v:groupContext="shape" transform="translate(118.606,-74.9606)">
			<title>Node</title>
			<path d="M0 140.31 A1.41732 1.41732 0 1 1 2.83 140.31 A1.41732 1.41732 0 1 1 0 140.31 Z" class="st5"/>
		</g>
		<g id="shape56-26" v:mID="56" v:groupContext="shape" transform="translate(141.126,-74.9606)">
			<title>Node.466</title>
			<path d="M0 140.31 A1.41732 1.41732 0 1 1 2.83 140.31 A1.41732 1.41732 0 1 1 0 140.31 Z" class="st5"/>
		</g>
		<g id="shape57-28" v:mID="57" v:groupContext="shape" v:layerMember="0" transform="translate(141.693,-80.2047) scale(-1,1)">
			<title>直线连接线</title>
			<v:userDefs>
				<v:ud v:nameU="visVersion" v:val="VT0(15):26"/>
			</v:userDefs>
			<path d="M0 141.73 A12.1469 12.1469 0 0 1 20.55 141.73" class="st6"/>
		</g>
		<g id="group58-37" transform="translate(121.847,-43.7795) scale(-1,1)" v:mID="58" v:groupContext="group">
			<title>inductor.474</title>
			<g id="shape59-38" v:mID="59" v:groupContext="shape" transform="translate(13.2468,-19.8425) scale(-1,1)">
				<title>工作表.59</title>
				<path d="M-0 139.84 A3.30709 1.88976 -180 0 0 3.31 141.73 A9.92126 3.77953 -180 0 0 13.23 137.95" class="st8"/>
			</g>
			<g id="shape60-41" v:mID="60" v:groupContext="shape" transform="translate(13.2468,259.843) rotate(180)">
				<title>工作表.60</title>
				<path d="M-0 139.84 A2.48031 1.88976 -180 0 0 2.48 141.73 A10.748 5.66929 -180 0 0 13.23 136.06" class="st8"/>
			</g>
			<g id="shape61-44" v:mID="61" v:groupContext="shape" transform="translate(13.2468,-14.1732) scale(-1,1)">
				<title>工作表.61</title>
				<path d="M-0 139.84 A3.30709 1.88976 -180 0 0 3.31 141.73 A9.92126 3.77953 -180 0 0 13.23 137.95" class="st8"/>
			</g>
			<g id="shape62-47" v:mID="62" v:groupContext="shape" transform="translate(13.2468,265.512) rotate(180)">
				<title>工作表.62</title>
				<path d="M-0 139.84 A2.48031 1.88976 -180 0 0 2.48 141.73 A10.748 5.66929 -180 0 0 13.23 136.06" class="st8"/>
			</g>
			<g id="shape63-50" v:mID="63" v:groupContext="shape" transform="translate(13.2468,-8.50394) scale(-1,1)">
				<title>工作表.63</title>
				<path d="M-0 139.84 A3.30709 1.88976 -180 0 0 3.31 141.73 A9.92126 3.77953 -180 0 0 13.23 137.95" class="st8"/>
			</g>
			<g id="shape64-53" v:mID="64" v:groupContext="shape"
					transform="translate(-49.1985,-14.9969) rotate(-23.1986) scale(-1,1)">
				<title>工作表.64</title>
				<path d="M-0 141.73 A7.35843 3.82191 140.58 0 1 7.2 141.73" class="st8"/>
			</g>
			<g id="shape65-56" v:mID="65" v:groupContext="shape" transform="translate(148.365,115.276) rotate(90) scale(-1,1)">
				<title>工作表.65</title>
				<path d="M0 141.73 L4.72 141.73" class="st8"/>
			</g>
			<g id="shape66-59" v:mID="66" v:groupContext="shape" transform="translate(-135.1,137.008) rotate(-90) scale(-1,1)">
				<title>工作表.66</title>
				<path d="M0 141.73 L4.72 141.73" class="st8"/>
			</g>
			<g id="shape67-62" v:mID="67" v:groupContext="shape" transform="translate(13.2468,271.181) rotate(180)">
				<title>工作表.67</title>
				<path d="M-0 139.84 A3.30709 1.88976 -180 0 0 3.31 141.73 A9.92126 3.77953 -180 0 0 13.23 137.95" class="st8"/>
			</g>
			<g id="shape68-65" v:mID="68" v:groupContext="shape" transform="translate(70.56,12.3267) rotate(27.2161) scale(-1,1)">
				<title>工作表.68</title>
				<path d="M0 139.78 A7.28362 4.81686 -122.35 0 0 7.44 139.78" class="st8"/>
			</g>
		</g>
		<g id="group69-68" transform="translate(154.004,-43.7795) scale(-1,1)" v:mID="69" v:groupContext="group">
			<title>inductor.483</title>
			<g id="shape70-69" v:mID="70" v:groupContext="shape" transform="translate(13.2468,-19.8425) scale(-1,1)">
				<title>工作表.70</title>
				<path d="M-0 139.84 A3.30709 1.88976 -180 0 0 3.31 141.73 A9.92126 3.77953 -180 0 0 13.23 137.95" class="st8"/>
			</g>
			<g id="shape71-72" v:mID="71" v:groupContext="shape" transform="translate(13.2468,259.843) rotate(180)">
				<title>工作表.71</title>
				<path d="M-0 139.84 A2.48031 1.88976 -180 0 0 2.48 141.73 A10.748 5.66929 -180 0 0 13.23 136.06" class="st8"/>
			</g>
			<g id="shape72-75" v:mID="72" v:groupContext="shape" transform="translate(13.2468,-14.1732) scale(-1,1)">
				<title>工作表.72</title>
				<path d="M-0 139.84 A3.30709 1.88976 -180 0 0 3.31 141.73 A9.92126 3.77953 -180 0 0 13.23 137.95" class="st8"/>
			</g>
			<g id="shape73-78" v:mID="73" v:groupContext="shape" transform="translate(13.2468,265.512) rotate(180)">
				<title>工作表.73</title>
				<path d="M-0 139.84 A2.48031 1.88976 -180 0 0 2.48 141.73 A10.748 5.66929 -180 0 0 13.23 136.06" class="st8"/>
			</g>
			<g id="shape74-81" v:mID="74" v:groupContext="shape" transform="translate(13.2468,-8.50394) scale(-1,1)">
				<title>工作表.74</title>
				<path d="M-0 139.84 A3.30709 1.88976 -180 0 0 3.31 141.73 A9.92126 3.77953 -180 0 0 13.23 137.95" class="st8"/>
			</g>
			<g id="shape75-84" v:mID="75" v:groupContext="shape"
					transform="translate(-49.1985,-14.9969) rotate(-23.1986) scale(-1,1)">
				<title>工作表.75</title>
				<path d="M-0 141.73 A7.35843 3.82191 140.58 0 1 7.2 141.73" class="st8"/>
			</g>
			<g id="shape76-87" v:mID="76" v:groupContext="shape" transform="translate(148.365,115.276) rotate(90) scale(-1,1)">
				<title>工作表.76</title>
				<path d="M0 141.73 L4.72 141.73" class="st8"/>
			</g>
			<g id="shape77-90" v:mID="77" v:groupContext="shape" transform="translate(-135.1,137.008) rotate(-90) scale(-1,1)">
				<title>工作表.77</title>
				<path d="M0 141.73 L4.72 141.73" class="st8"/>
			</g>
			<g id="shape78-93" v:mID="78" v:groupContext="shape" transform="translate(13.2468,271.181) rotate(180)">
				<title>工作表.78</title>
				<path d="M-0 139.84 A3.30709 1.88976 -180 0 0 3.31 141.73 A9.92126 3.77953 -180 0 0 13.23 137.95" class="st8"/>
			</g>
			<g id="shape79-96" v:mID="79" v:groupContext="shape" transform="translate(70.56,12.3267) rotate(27.2161) scale(-1,1)">
				<title>工作表.79</title>
				<path d="M0 139.78 A7.28362 4.81686 -122.35 0 0 7.44 139.78" class="st8"/>
			</g>
		</g>
		<g id="shape80-99" v:mID="80" v:groupContext="shape" transform="translate(164.102,-87.7165)">
			<title>工作表.80</title>
			<path d="M7.18 141.73 L7.54 141.73 L15.59 141.73" class="st9"/>
		</g>
		<g id="shape81-105" v:mID="81" v:groupContext="shape" transform="translate(98.4646,-87.7165) scale(-1,1)">
			<title>工作表.81</title>
			<path d="M7.18 141.73 L7.54 141.73 L15.59 141.73" class="st9"/>
		</g>
		<g id="shape84-110" v:mID="84" v:groupContext="shape" transform="translate(73.7008,-95.6693)">
			<title>工作表.84</title>
			<desc>ip</desc>
			<v:textBlock v:margins="rect(4,4,4,4)" v:tabSpace="42.5197"/>
			<v:textRect cx="19.8425" cy="134.646" width="39.69" height="14.1732"/>
			<rect x="0" y="127.559" width="39.685" height="14.1732" class="st11"/>
			<text x="16.31" y="138.25" class="st12" v:langID="1033"><v:paragraph v:horizAlign="1"/><v:tabList/>i<tspan
						dy="-0.284em" class="st4" v:baseFontSize="12">p</tspan></text>		</g>
		<g id="shape85-114" v:mID="85" v:groupContext="shape" transform="translate(149.983,-95.6693)">
			<title>工作表.85</title>
			<desc>is</desc>
			<v:textBlock v:margins="rect(4,4,4,4)" v:tabSpace="42.5197"/>
			<v:textRect cx="19.8425" cy="134.646" width="39.69" height="14.1732"/>
			<rect x="0" y="127.559" width="39.685" height="14.1732" class="st11"/>
			<text x="16.83" y="138.25" class="st12" v:langID="1033"><v:paragraph v:horizAlign="1"/><v:tabList/>i<tspan
						dy="-0.284em" class="st4" v:baseFontSize="12">s</tspan></text>		</g>
		<g id="shape86-118" v:mID="86" v:groupContext="shape" transform="translate(54.4252,-55.2756)">
			<title>工作表.86</title>
			<desc>vp</desc>
			<v:textBlock v:margins="rect(4,4,4,4)" v:tabSpace="42.5197"/>
			<v:textRect cx="19.8425" cy="134.646" width="39.69" height="14.1732"/>
			<rect x="0" y="127.559" width="39.685" height="14.1732" class="st11"/>
			<text x="14.97" y="138.25" class="st12" v:langID="1033"><v:paragraph v:horizAlign="1"/><v:tabList/>v<tspan
						dy="-0.284em" class="st4" v:baseFontSize="12">p</tspan></text>		</g>
		<g id="shape87-122" v:mID="87" v:groupContext="shape" transform="translate(166.961,-55.2756)">
			<title>工作表.87</title>
			<desc>vs</desc>
			<v:textBlock v:margins="rect(4,4,4,4)" v:tabSpace="42.5197"/>
			<v:textRect cx="19.8425" cy="134.646" width="39.69" height="14.1732"/>
			<rect x="0" y="127.559" width="39.685" height="14.1732" class="st11"/>
			<text x="15.49" y="138.25" class="st12" v:langID="1033"><v:paragraph v:horizAlign="1"/><v:tabList/>v<tspan
						dy="-0.284em" class="st4" v:baseFontSize="12">s</tspan></text>		</g>
		<g id="shape89-126" v:mID="89" v:groupContext="shape" transform="translate(55.8425,-80.7874)">
			<title>工作表.89</title>
			<desc>+</desc>
			<v:textBlock v:margins="rect(4,4,4,4)" v:tabSpace="42.5197"/>
			<v:textRect cx="19.8425" cy="134.646" width="39.69" height="14.1732"/>
			<rect x="0" y="127.559" width="39.685" height="14.1732" class="st11"/>
			<text x="17.35" y="137.65" class="st13" v:langID="2052"><v:paragraph v:horizAlign="1"/><v:tabList/>+</text>		</g>
		<g id="shape90-129" v:mID="90" v:groupContext="shape" transform="translate(55.8425,-29.7638)">
			<title>工作表.90</title>
			<desc>-</desc>
			<v:textBlock v:margins="rect(4,4,4,4)" v:tabSpace="42.5197"/>
			<v:textRect cx="19.8425" cy="134.646" width="39.69" height="14.1732"/>
			<rect x="0" y="127.559" width="39.685" height="14.1732" class="st11"/>
			<text x="18.31" y="137.65" class="st13" v:langID="2052"><v:paragraph v:horizAlign="1"/><v:tabList/>-</text>		</g>
		<g id="shape91-132" v:mID="91" v:groupContext="shape" transform="translate(167.244,-80.7874)">
			<title>工作表.91</title>
			<desc>+</desc>
			<v:textBlock v:margins="rect(4,4,4,4)" v:tabSpace="42.5197"/>
			<v:textRect cx="19.8425" cy="134.646" width="39.69" height="14.1732"/>
			<rect x="0" y="127.559" width="39.685" height="14.1732" class="st11"/>
			<text x="17.35" y="137.65" class="st13" v:langID="2052"><v:paragraph v:horizAlign="1"/><v:tabList/>+</text>		</g>
		<g id="shape92-135" v:mID="92" v:groupContext="shape" transform="translate(167.244,-29.7638)">
			<title>工作表.92</title>
			<desc>-</desc>
			<v:textBlock v:margins="rect(4,4,4,4)" v:tabSpace="42.5197"/>
			<v:textRect cx="19.8425" cy="134.646" width="39.69" height="14.1732"/>
			<rect x="0" y="127.559" width="39.685" height="14.1732" class="st11"/>
			<text x="18.31" y="137.65" class="st13" v:langID="2052"><v:paragraph v:horizAlign="1"/><v:tabList/>-</text>		</g>
	</g>
</svg>
