<?xml version="1.0" encoding="UTF-8" standalone="no"?>
<!DOCTYPE svg PUBLIC "-//W3C//DTD SVG 1.1//EN" "http://www.w3.org/Graphics/SVG/1.1/DTD/svg11.dtd">
<!-- 由 Microsoft Visio, SVG Export 生成 Lp-smith.svg Page-1 -->
<svg xmlns="http://www.w3.org/2000/svg" xmlns:xlink="http://www.w3.org/1999/xlink" xmlns:ev="http://www.w3.org/2001/xml-events"
		xmlns:v="http://schemas.microsoft.com/visio/2003/SVGExtensions/" width="8.46457in" height="8.34646in"
		viewBox="0 0 609.449 600.945" xml:space="preserve" color-interpolation-filters="sRGB" class="st19">
	<v:documentProperties v:langID="2052" v:metric="true" v:viewMarkup="false">
		<v:userDefs>
			<v:ud v:nameU="msvNoAutoConnect" v:val="VT0(1):26"/>
		</v:userDefs>
	</v:documentProperties>

	<style type="text/css">
	<![CDATA[
		.st1 {stroke:#a5a5a5;stroke-dasharray:3,6;stroke-linecap:round;stroke-linejoin:round;stroke-width:3}
		.st2 {stroke:#a5a5a5;stroke-linecap:round;stroke-linejoin:round;stroke-width:3}
		.st3 {fill:none;stroke:none;stroke-linecap:round;stroke-linejoin:round;stroke-width:0.75}
		.st4 {fill:#a5a5a5;font-family:宋体;font-size:1.5em;font-weight:bold}
		.st5 {fill:#a5a5a5;font-family:Calibri;font-size:1.5em;font-weight:bold}
		.st6 {fill:#000000;font-family:Times New Roman;font-size:1.99999em;font-weight:bold}
		.st7 {fill:none;stroke:#0070c0;stroke-linecap:round;stroke-linejoin:round;stroke-width:3}
		.st8 {stroke:#000000;stroke-linecap:round;stroke-linejoin:round;stroke-width:3}
		.st9 {fill:#ffffff;stroke:#000000;stroke-linecap:round;stroke-linejoin:round;stroke-width:3}
		.st10 {fill:#ffffff;stroke:#00b050;stroke-linecap:round;stroke-linejoin:round;stroke-width:3}
		.st11 {fill:#ffffff;stroke:#0070c0;stroke-linecap:round;stroke-linejoin:round;stroke-width:3}
		.st12 {fill:#ffffff;stroke:#ff0000;stroke-linecap:round;stroke-linejoin:round;stroke-width:3}
		.st13 {marker-end:url(#mrkr4-219);stroke:#0070c0;stroke-linecap:round;stroke-linejoin:round;stroke-width:3}
		.st14 {fill:#0070c0;fill-opacity:1;stroke:#0070c0;stroke-opacity:1;stroke-width:0.54347826086957}
		.st15 {baseline-shift:-32.4951%;font-size:0.649901em}
		.st16 {fill:#ff0000;font-family:Times New Roman;font-size:1.99999em;font-weight:bold}
		.st17 {fill:#00b050;font-family:Times New Roman;font-size:1.99999em;font-weight:bold}
		.st18 {fill:#0070c0;font-family:Times New Roman;font-size:1.99999em;font-weight:bold}
		.st19 {fill:none;fill-rule:evenodd;font-size:12px;overflow:visible;stroke-linecap:square;stroke-miterlimit:3}
	]]>
	</style>

	<defs id="Markers">
		<g id="lend4">
			<path d="M 2 1 L 0 0 L 2 -1 L 2 1 " style="stroke:none"/>
		</g>
		<marker id="mrkr4-219" class="st14" v:arrowType="4" v:arrowSize="2" v:setback="3.56" refX="-3.56" orient="auto"
				markerUnits="strokeWidth" overflow="visible">
			<use xlink:href="#lend4" transform="scale(-1.84,-1.84) "/>
		</marker>
	</defs>
	<g v:mID="0" v:index="1" v:groupContext="foregroundPage">
		<title>页-1</title>
		<v:pageProperties v:drawingScale="0.0393701" v:pageScale="0.0393701" v:drawingUnits="24" v:shadowOffsetX="8.50394"
				v:shadowOffsetY="-8.50394"/>
		<v:layer v:name="连接线" v:index="0"/>
		<g id="group219-1" transform="translate(28.3465,-36.6929)" v:mID="219" v:groupContext="group">
			<title>工作表.219</title>
			<g id="shape220-2" v:mID="220" v:groupContext="shape" transform="translate(47.6221,-260.945)">
				<title>工作表.220</title>
				<path d="M0 600.94 L467.71 600.94" class="st1"/>
			</g>
			<g id="shape221-5" v:mID="221" v:groupContext="shape" transform="translate(-85.6062,340.364) rotate(-90.0347)">
				<title>工作表.221</title>
				<path d="M0 600.94 L0.28 600.94" class="st2"/>
			</g>
			<g id="shape222-8" v:mID="222" v:groupContext="shape" transform="translate(880.648,49.0222) rotate(84.5356)">
				<title>工作表.222</title>
				<path d="M0 599.91 A233.858 233.858 -130.88 0 0 43.96 599.91" class="st1"/>
			</g>
			<g id="shape223-11" v:mID="223" v:groupContext="shape" transform="translate(958.893,421.745) rotate(116.561)">
				<title>工作表.223</title>
				<path d="M-0 599 A115.937 115.937 -129.71 0 0 42.27 599" class="st1"/>
			</g>
			<g id="shape224-14" v:mID="224" v:groupContext="shape" transform="translate(782.59,796.606) rotate(152.255)">
				<title>工作表.224</title>
				<path d="M0 600.47 A38.2819 38.2819 -127.82 0 0 12.03 600.47" class="st1"/>
			</g>
			<g id="shape225-17" v:mID="225" v:groupContext="shape" transform="translate(1003.41,19.4139) rotate(63.4641)">
				<title>工作表.225</title>
				<path d="M-0 579.75 A38.2819 38.2819 -31.93 0 0 68.51 579.75" class="st1"/>
			</g>
			<g id="shape226-20" v:mID="226" v:groupContext="shape" transform="translate(916.442,696.053) rotate(135.084)">
				<title>工作表.226</title>
				<path d="M-0 600.56 A38.2819 38.2819 -128.2 0 0 10.83 600.56" class="st1"/>
			</g>
			<g id="shape227-23" v:mID="227" v:groupContext="shape" transform="translate(-314.782,516.694) rotate(-84.5687)">
				<title>工作表.227</title>
				<path d="M0 600.94 A233.858 233.858 135 0 1 43.69 600.94" class="st1"/>
			</g>
			<g id="shape228-26" v:mID="228" v:groupContext="shape" transform="translate(-85.6061,340.445) rotate(-90.0408)">
				<title>工作表.228</title>
				<path d="M0 600.94 L0.31 600.94" class="st1"/>
			</g>
			<g id="shape229-29" v:mID="229" v:groupContext="shape" transform="translate(729.918,149.968) rotate(90.0077)">
				<title>工作表.229</title>
				<path d="M-0 442.27 A193.195 193.195 -15.46 0 0 380.17 442.27" class="st1"/>
			</g>
			<g id="shape230-32" v:mID="230" v:groupContext="shape" transform="translate(-114.109,795.14) rotate(-116.626)">
				<title>工作表.230</title>
				<path d="M0 600.94 A115.937 115.937 129.87 0 1 42.01 600.94" class="st1"/>
			</g>
			<g id="shape231-35" v:mID="231" v:groupContext="shape" transform="translate(-85.606,340.544) rotate(-90.051)">
				<title>工作表.231</title>
				<path d="M0 600.94 L0.29 600.94" class="st1"/>
			</g>
			<g id="shape232-38" v:mID="232" v:groupContext="shape" transform="translate(807.242,191.611) rotate(89.9858)">
				<title>工作表.232</title>
				<path d="M0 403.03 A154.502 154.502 -163.75 1 0 296.56 403.03" class="st1"/>
			</g>
			<g id="shape233-41" v:mID="233" v:groupContext="shape" transform="translate(224.419,946.999) rotate(-152.377)">
				<title>工作表.233</title>
				<path d="M0 600.94 A38.2819 38.2819 136.37 0 1 11.86 600.94" class="st1"/>
			</g>
			<g id="shape234-44" v:mID="234" v:groupContext="shape" transform="translate(-85.6059,340.721) rotate(-90.068)">
				<title>工作表.234</title>
				<path d="M0 600.94 L0.29 600.94" class="st1"/>
			</g>
			<g id="shape235-47" v:mID="235" v:groupContext="shape" transform="translate(-53.5414,134.539) rotate(-63.6281)">
				<title>工作表.235</title>
				<path d="M0 600.94 A38.2819 38.2819 18.72 0 1 68.61 600.94" class="st1"/>
			</g>
			<g id="shape236-50" v:mID="236" v:groupContext="shape" transform="translate(70.3568,836.719) rotate(-135.37)">
				<title>工作表.236</title>
				<path d="M0 600.94 A38.2819 38.2819 45 0 1 10.78 600.94" class="st1"/>
			</g>
			<g id="shape237-53" v:mID="237" v:groupContext="shape" transform="translate(-85.6054,341.078) rotate(-90.102)">
				<title>工作表.237</title>
				<path d="M0 600.94 L0.29 600.94" class="st1"/>
			</g>
			<g id="group238-56" transform="translate(47.622,-27.0866)" v:mID="238" v:groupContext="group">
				<title>工作表.238</title>
				<g id="shape239-57" v:mID="239" v:groupContext="shape" transform="translate(81.1646,-37.9012) rotate(11.3326)">
					<title>工作表.239</title>
					<path d="M0 321.13 A233.858 233.858 -15.51 1 0 458.6 321.13" class="st2"/>
				</g>
				<g id="shape240-60" v:mID="240" v:groupContext="shape" transform="translate(561.263,544.119) rotate(127.91)">
					<title>工作表.240</title>
					<path d="M-0 592.72 A233.858 233.858 -135 0 0 122.98 592.72" class="st2"/>
				</g>
				<g id="shape241-63" v:mID="241" v:groupContext="shape" transform="translate(419.495,692.499) rotate(161.821)">
					<title>工作表.241</title>
					<path d="M0 588.64 A233.858 233.858 -123.6 0 0 149.69 588.64" class="st2"/>
				</g>
				<g id="shape242-66" v:mID="242" v:groupContext="shape" transform="translate(184.898,738.302) rotate(-161.12)">
					<title>工作表.242</title>
					<path d="M-0 589 A233.858 233.858 -127.7 0 0 147.58 589" class="st2"/>
				</g>
				<g id="shape243-69" v:mID="243" v:groupContext="shape" transform="translate(-24.3015,636.899) rotate(-125.694)">
					<title>工作表.243</title>
					<path d="M0 590.69 A233.858 233.858 -132.47 0 0 137.01 590.69" class="st2"/>
				</g>
				<g id="shape244-72" v:mID="244" v:groupContext="shape" transform="translate(-122.189,464.09) rotate(-99.3649)">
					<title>工作表.244</title>
					<path d="M0 597.87 A233.858 233.858 -138.91 0 0 75.55 597.87" class="st2"/>
				</g>
			</g>
			<g id="shape245-75" v:mID="245" v:groupContext="shape" transform="translate(517.552,-250.945)">
				<title>工作表.245</title>
				<desc>∞</desc>
				<v:textBlock v:margins="rect(4,4,4,4)" v:tabSpace="42.5197"/>
				<v:textRect cx="10.5154" cy="590.945" width="21.04" height="20"/>
				<rect x="0" y="580.945" width="21.0307" height="20" class="st3"/>
				<text x="4" y="596.94" class="st4" v:langID="2052"><v:paragraph v:horizAlign="1"/><v:tabList/>∞</text>			</g>
			<g id="shape246-78" v:mID="246" v:groupContext="shape" transform="translate(493.228,-325.984)">
				<title>工作表.246</title>
				<desc>+j5.0</desc>
				<v:textBlock v:margins="rect(4,4,4,4)" v:tabSpace="42.5197"/>
				<v:textRect cx="31.7752" cy="590.945" width="63.56" height="20"/>
				<rect x="0" y="580.945" width="63.5504" height="20" class="st3"/>
				<text x="13.47" y="596.34" class="st5" v:langID="2052"><v:paragraph v:horizAlign="1"/><v:tabList/>+j5.0</text>			</g>
			<g id="shape247-81" v:mID="247" v:groupContext="shape" transform="translate(492.634,-175.906)">
				<title>工作表.247</title>
				<desc>-j5.0</desc>
				<v:textBlock v:margins="rect(4,4,4,4)" v:tabSpace="42.5197"/>
				<v:textRect cx="31.7752" cy="590.945" width="63.56" height="20"/>
				<rect x="0" y="580.945" width="63.5504" height="20" class="st3"/>
				<text x="15.19" y="596.34" class="st5" v:langID="2052"><v:paragraph v:horizAlign="1"/><v:tabList/>-j5.0</text>			</g>
			<g id="shape248-84" v:mID="248" v:groupContext="shape" transform="translate(418.339,-439.37)">
				<title>工作表.248</title>
				<desc>+j2.0</desc>
				<v:textBlock v:margins="rect(4,4,4,4)" v:tabSpace="42.5197"/>
				<v:textRect cx="31.7752" cy="590.945" width="63.56" height="20"/>
				<rect x="0" y="580.945" width="63.5504" height="20" class="st3"/>
				<text x="13.47" y="596.34" class="st5" v:langID="2052"><v:paragraph v:horizAlign="1"/><v:tabList/>+j2.0</text>			</g>
			<g id="shape249-87" v:mID="249" v:groupContext="shape" transform="translate(418.339,-62.5197)">
				<title>工作表.249</title>
				<desc>-j2.0</desc>
				<v:textBlock v:margins="rect(4,4,4,4)" v:tabSpace="42.5197"/>
				<v:textRect cx="31.7752" cy="590.945" width="63.56" height="20"/>
				<rect x="0" y="580.945" width="63.5504" height="20" class="st3"/>
				<text x="15.19" y="596.34" class="st5" v:langID="2052"><v:paragraph v:horizAlign="1"/><v:tabList/>-j2.0</text>			</g>
			<g id="shape250-90" v:mID="250" v:groupContext="shape" transform="translate(249.705,-501.89)">
				<title>工作表.250</title>
				<desc>+j1.0</desc>
				<v:textBlock v:margins="rect(4,4,4,4)" v:tabSpace="42.5197"/>
				<v:textRect cx="31.7752" cy="590.945" width="63.56" height="20"/>
				<rect x="0" y="580.945" width="63.5504" height="20" class="st3"/>
				<text x="13.47" y="596.34" class="st5" v:langID="2052"><v:paragraph v:horizAlign="1"/><v:tabList/>+j1.0</text>			</g>
			<g id="shape251-93" v:mID="251" v:groupContext="shape" transform="translate(249.705,1.13687E-13)">
				<title>工作表.251</title>
				<desc>-j1.0</desc>
				<v:textBlock v:margins="rect(4,4,4,4)" v:tabSpace="42.5197"/>
				<v:textRect cx="31.7752" cy="590.945" width="63.56" height="20"/>
				<rect x="0" y="580.945" width="63.5504" height="20" class="st3"/>
				<text x="15.19" y="596.34" class="st5" v:langID="2052"><v:paragraph v:horizAlign="1"/><v:tabList/>-j1.0</text>			</g>
			<g id="shape252-96" v:mID="252" v:groupContext="shape" transform="translate(92.3551,-453.543)">
				<title>工作表.252</title>
				<desc>+j0.5</desc>
				<v:textBlock v:margins="rect(4,4,4,4)" v:tabSpace="42.5197"/>
				<v:textRect cx="31.7752" cy="590.945" width="63.56" height="20"/>
				<rect x="0" y="580.945" width="63.5504" height="20" class="st3"/>
				<text x="13.47" y="596.34" class="st5" v:langID="2052"><v:paragraph v:horizAlign="1"/><v:tabList/>+j0.5</text>			</g>
			<g id="shape253-99" v:mID="253" v:groupContext="shape" transform="translate(92.3551,-46.8504)">
				<title>工作表.253</title>
				<desc>-j0.5</desc>
				<v:textBlock v:margins="rect(4,4,4,4)" v:tabSpace="42.5197"/>
				<v:textRect cx="31.7752" cy="590.945" width="63.56" height="20"/>
				<rect x="0" y="580.945" width="63.5504" height="20" class="st3"/>
				<text x="15.19" y="596.34" class="st5" v:langID="2052"><v:paragraph v:horizAlign="1"/><v:tabList/>-j0.5</text>			</g>
			<g id="shape254-102" v:mID="254" v:groupContext="shape" transform="translate(11.3386,-348.661)">
				<title>工作表.254</title>
				<desc>+j0.2</desc>
				<v:textBlock v:margins="rect(4,4,4,4)" v:tabSpace="42.5197"/>
				<v:textRect cx="31.7752" cy="590.945" width="63.56" height="20"/>
				<rect x="0" y="580.945" width="63.5504" height="20" class="st3"/>
				<text x="13.47" y="596.34" class="st5" v:langID="2052"><v:paragraph v:horizAlign="1"/><v:tabList/>+j0.2</text>			</g>
			<g id="shape255-105" v:mID="255" v:groupContext="shape" transform="translate(10.7445,-154.567)">
				<title>工作表.255</title>
				<desc>-j0.2</desc>
				<v:textBlock v:margins="rect(4,4,4,4)" v:tabSpace="42.5197"/>
				<v:textRect cx="31.7752" cy="590.945" width="63.56" height="20"/>
				<rect x="0" y="580.945" width="63.5504" height="20" class="st3"/>
				<text x="15.19" y="596.34" class="st5" v:langID="2052"><v:paragraph v:horizAlign="1"/><v:tabList/>-j0.2</text>			</g>
			<g id="shape256-108" v:mID="256" v:groupContext="shape" transform="translate(2.79776E-14,-250.945)">
				<title>工作表.256</title>
				<desc>0</desc>
				<v:textBlock v:margins="rect(4,4,4,4)" v:tabSpace="42.5197"/>
				<v:textRect cx="31.7752" cy="590.945" width="63.56" height="20"/>
				<rect x="0" y="580.945" width="63.5504" height="20" class="st3"/>
				<text x="27.21" y="596.34" class="st5" v:langID="2052"><v:paragraph v:horizAlign="1"/><v:tabList/>0</text>			</g>
			<g id="shape257-111" v:mID="257" v:groupContext="shape" transform="translate(255.118,-263.622)">
				<title>工作表.257</title>
				<desc>1.0</desc>
				<v:textBlock v:margins="rect(4,4,4,4)" v:tabSpace="42.5197"/>
				<v:textRect cx="19.3465" cy="590.945" width="38.7" height="20" transform="rotate(-90)"/>
				<rect x="0" y="580.945" width="38.6929" height="20" class="st3"/>
				<text x="-602.47" y="24.75" transform="rotate(-90)" class="st5" v:langID="2052"><v:paragraph v:horizAlign="1"/><v:tabList/>1.0</text>			</g>
			<g id="shape258-114" v:mID="258" v:groupContext="shape" transform="translate(177.165,-265.118)">
				<title>工作表.258</title>
				<desc>0.5</desc>
				<v:textBlock v:margins="rect(4,4,4,4)" v:tabSpace="42.5197"/>
				<v:textRect cx="19.3465" cy="590.945" width="38.7" height="20" transform="rotate(-90)"/>
				<rect x="0" y="580.945" width="38.6929" height="20" class="st3"/>
				<text x="-602.47" y="24.75" transform="rotate(-90)" class="st5" v:langID="2052"><v:paragraph v:horizAlign="1"/><v:tabList/>0.5</text>			</g>
			<g id="shape259-117" v:mID="259" v:groupContext="shape" transform="translate(99.2126,-265.118)">
				<title>工作表.259</title>
				<desc>0.2</desc>
				<v:textBlock v:margins="rect(4,4,4,4)" v:tabSpace="42.5197"/>
				<v:textRect cx="19.3465" cy="590.945" width="38.7" height="20" transform="rotate(-90)"/>
				<rect x="0" y="580.945" width="38.6929" height="20" class="st3"/>
				<text x="-602.47" y="24.75" transform="rotate(-90)" class="st5" v:langID="2052"><v:paragraph v:horizAlign="1"/><v:tabList/>0.2</text>			</g>
			<g id="shape260-120" v:mID="260" v:groupContext="shape" transform="translate(333.071,-265.118)">
				<title>工作表.260</title>
				<desc>2.0</desc>
				<v:textBlock v:margins="rect(4,4,4,4)" v:tabSpace="42.5197"/>
				<v:textRect cx="19.3465" cy="590.945" width="38.7" height="20" transform="rotate(-90)"/>
				<rect x="0" y="580.945" width="38.6929" height="20" class="st3"/>
				<text x="-602.47" y="24.75" transform="rotate(-90)" class="st5" v:langID="2052"><v:paragraph v:horizAlign="1"/><v:tabList/>2.0</text>			</g>
			<g id="shape261-123" v:mID="261" v:groupContext="shape" transform="translate(411.024,-265.118)">
				<title>工作表.261</title>
				<desc>5.0</desc>
				<v:textBlock v:margins="rect(4,4,4,4)" v:tabSpace="42.5197"/>
				<v:textRect cx="19.3465" cy="590.945" width="38.7" height="20" transform="rotate(-90)"/>
				<rect x="0" y="580.945" width="38.6929" height="20" class="st3"/>
				<text x="-602.47" y="24.75" transform="rotate(-90)" class="st5" v:langID="2052"><v:paragraph v:horizAlign="1"/><v:tabList/>5.0</text>			</g>
			<g id="shape262-126" v:mID="262" v:groupContext="shape" transform="translate(608.906,790.061) rotate(167.355)">
				<title>工作表.262</title>
				<path d="M-0 532.2 A115.937 115.937 -82.24 0 0 211.8 532.2" class="st1"/>
			</g>
			<g id="shape263-129" v:mID="263" v:groupContext="shape" transform="translate(239.668,-319.394) rotate(16.9945)">
				<title>工作表.263</title>
				<path d="M0 595.27 A1169.36 1169.36 -131.96 0 0 230.11 595.27" class="st1"/>
			</g>
			<g id="shape264-132" v:mID="264" v:groupContext="shape" transform="translate(650.694,822.679) rotate(163.042)">
				<title>工作表.264</title>
				<path d="M0 569 A77.2441 77.2441 -73.67 0 0 125.14 569" class="st1"/>
			</g>
			<g id="shape265-135" v:mID="265" v:groupContext="shape" transform="translate(481.491,-316.957) rotate(35.9127)">
				<title>工作表.265</title>
				<path d="M0 580.07 A467.717 467.433 -35.91 0 0 276.31 580.07" class="st1"/>
			</g>
			<g id="shape266-138" v:mID="266" v:groupContext="shape" transform="translate(718.017,-223.07) rotate(49.086)">
				<title>工作表.266</title>
				<path d="M-0 569.5 A233.858 233.858 -27.12 0 0 234.26 569.5" class="st1"/>
			</g>
			<g id="shape267-141" v:mID="267" v:groupContext="shape" transform="translate(974.052,603.852) rotate(118.546)">
				<title>工作表.267</title>
				<path d="M-0 600.52 A38.2819 38.2819 -137.28 0 0 11.44 600.52" class="st1"/>
			</g>
			<g id="shape268-144" v:mID="268" v:groupContext="shape" transform="translate(334.305,885.459) rotate(-161.649)">
				<title>工作表.268</title>
				<path d="M-0 574.99 A38.2819 38.2819 -116.13 0 0 72.48 574.99" class="st1"/>
			</g>
			<g id="shape269-147" v:mID="269" v:groupContext="shape" transform="translate(953.904,5.81968) rotate(71.316)">
				<title>工作表.269</title>
				<path d="M-0 580.28 A115.937 115.937 -20.51 0 0 132.14 580.28" class="st1"/>
			</g>
			<g id="shape270-150" v:mID="270" v:groupContext="shape" transform="translate(402.252,-156.448) rotate(12.6572)">
				<title>工作表.270</title>
				<path d="M-0 531.97 A115.937 115.937 -104.42 0 0 212 531.97" class="st1"/>
			</g>
			<g id="shape271-153" v:mID="271" v:groupContext="shape" transform="translate(884.436,317.835) rotate(90.0666)">
				<title>工作表.271</title>
				<path d="M-0 598.7 A115.937 115.937 -140.1 0 0 45.46 598.7" class="st1"/>
			</g>
			<g id="shape272-156" v:mID="272" v:groupContext="shape" transform="translate(-109.975,-144.858) rotate(-16.9958)">
				<title>工作表.272</title>
				<path d="M-0 600.94 A1169.36 1169.36 130.96 0 1 230.05 600.94" class="st1"/>
			</g>
			<g id="shape273-159" v:mID="273" v:groupContext="shape" transform="translate(531.196,-179.158) rotate(16.9934)">
				<title>工作表.273</title>
				<path d="M0 568.82 A77.2441 77.2441 -99.92 0 0 125.39 568.82" class="st1"/>
			</g>
			<g id="shape274-162" v:mID="274" v:groupContext="shape" transform="translate(961.837,315.929) rotate(90.0966)">
				<title>工作表.274</title>
				<path d="M0 596.8 A77.2441 77.2441 -131.34 0 0 49.91 596.8" class="st1"/>
			</g>
			<g id="shape275-165" v:mID="275" v:groupContext="shape" transform="translate(-211.285,40.1943) rotate(-35.9182)">
				<title>工作表.275</title>
				<path d="M-0 600.94 A467.717 467.433 35.92 0 1 276.23 600.94" class="st1"/>
			</g>
			<g id="shape276-168" v:mID="276" v:groupContext="shape" transform="translate(-85.6021,342.176) rotate(-90.2058)">
				<title>工作表.276</title>
				<path d="M0 600.94 A38.2819 38.2819 -45 0 0 0.31 600.94" class="st1"/>
			</g>
			<g id="shape277-171" v:mID="277" v:groupContext="shape" transform="translate(1039.76,328.97) rotate(90.1946)">
				<title>工作表.277</title>
				<path d="M0 598.69 A38.2819 38.2819 -139.53 0 0 25.88 598.69" class="st1"/>
			</g>
			<g id="shape278-174" v:mID="278" v:groupContext="shape" transform="translate(-166.836,136.861) rotate(-49.1306)">
				<title>工作表.278</title>
				<path d="M0 600.94 A233.858 233.858 45 0 1 234.41 600.94" class="st1"/>
			</g>
			<g id="shape279-177" v:mID="279" v:groupContext="shape" transform="translate(265.062,-182.463) rotate(-18.3919)">
				<title>工作表.279</title>
				<path d="M0 574.76 A38.2819 38.2819 -145.84 0 0 72.64 574.76" class="st1"/>
			</g>
			<g id="shape280-180" v:mID="280" v:groupContext="shape" transform="translate(970.286,69.1727) rotate(61.8137)">
				<title>工作表.280</title>
				<path d="M0 600.51 A38.2819 38.2819 -128.17 0 0 11.48 600.51" class="st1"/>
			</g>
			<g id="shape281-183" v:mID="281" v:groupContext="shape" transform="translate(-165.349,296.811) rotate(-71.4221)">
				<title>工作表.281</title>
				<path d="M-0 600.94 A115.937 115.937 45 0 1 132.22 600.94" class="st1"/>
			</g>
		</g>
		<g id="shape282-186" v:mID="282" v:groupContext="shape" transform="translate(311.811,-271.328)">
			<title>工作表.282</title>
			<desc>Lp-M</desc>
			<v:textBlock v:margins="rect(4,4,4,4)" v:tabSpace="42.5197"/>
			<v:textRect cx="38.1475" cy="587.79" width="76.3" height="26.3096"/>
			<rect x="0" y="574.635" width="76.2949" height="26.3096" class="st3"/>
			<text x="8.15" y="594.99" class="st6" v:langID="2052"><v:paragraph v:horizAlign="1"/><v:tabList/>Lp-M</text>		</g>
		<g id="shape284-189" v:mID="284" v:groupContext="shape" transform="translate(320.017,-70.8661)">
			<title>工作表.284</title>
			<desc>Ls-M</desc>
			<v:textBlock v:margins="rect(4,4,4,4)" v:tabSpace="42.5197"/>
			<v:textRect cx="34.3141" cy="587.79" width="68.63" height="26.3096"/>
			<rect x="0" y="574.635" width="68.6283" height="26.3096" class="st3"/>
			<text x="6.32" y="594.99" class="st6" v:langID="2052"><v:paragraph v:horizAlign="1"/><v:tabList/>Ls-M</text>		</g>
		<g id="shape285-192" v:mID="285" v:groupContext="shape" transform="translate(309.097,-143.769)">
			<title>工作表.285</title>
			<desc>M</desc>
			<v:textBlock v:margins="rect(4,4,4,4)" v:tabSpace="42.5197"/>
			<v:textRect cx="38.1475" cy="587.79" width="76.3" height="26.3096"/>
			<rect x="0" y="574.635" width="76.2949" height="26.3096" class="st3"/>
			<text x="26.82" y="594.99" class="st6" v:langID="2052"><v:paragraph v:horizAlign="1"/><v:tabList/>M</text>		</g>
		<g id="shape485-195" v:mID="485" v:groupContext="shape" transform="translate(389.339,-220.252)">
			<title>工作表.485</title>
			<ellipse cx="77.6693" cy="523.276" rx="77.6693" ry="77.6693" class="st7"/>
		</g>
		<g id="shape476-197" v:mID="476" v:groupContext="shape" transform="translate(993.914,269.886) rotate(93.7847)">
			<title>工作表.476</title>
			<path d="M-0 562.01 A94.9903 84.4072 -92.07 0 0 136.32 562.01" class="st8"/>
		</g>
		<g id="shape487-200" v:mID="487" v:groupContext="shape" transform="translate(-75.1798,28.7813) rotate(-36.8492)">
			<title>工作表.487</title>
			<path d="M0 569.67 A172.913 172.913 -135 0 0 198.37 569.67" class="st8"/>
		</g>
		<g id="shape492-203" v:mID="492" v:groupContext="shape" transform="translate(218.034,-89.7341) rotate(-5.20745)">
			<title>工作表.492</title>
			<path d="M-0 577.06 A197.433 196.15 -90 0 0 187.02 577.06" class="st8"/>
		</g>
		<g id="shape165-206" v:mID="165" v:groupContext="shape" transform="translate(873.676,43.0481) rotate(45)">
			<title>工作表.165</title>
			<rect x="0" y="589.748" width="11.1967" height="11.1967" class="st9"/>
		</g>
		<g id="shape167-208" v:mID="167" v:groupContext="shape" transform="translate(420.816,-228.189)">
			<title>工作表.167</title>
			<ellipse cx="4.31639" cy="596.693" rx="4.31639" ry="4.25197" class="st10"/>
		</g>
		<g id="shape166-210" v:mID="166" v:groupContext="shape" transform="translate(428.031,-362.919)">
			<title>工作表.166</title>
			<ellipse cx="5.66929" cy="595.36" rx="5.66929" ry="5.58468" class="st11"/>
		</g>
		<g id="shape213-212" v:mID="213" v:groupContext="shape" transform="translate(265.89,-111.402)">
			<title>工作表.213</title>
			<ellipse cx="4.31639" cy="596.693" rx="4.31639" ry="4.25197" class="st12"/>
		</g>
		<g id="shape508-214" v:mID="508" v:groupContext="shape" v:layerMember="0"
				transform="translate(617.006,790.482) rotate(-21.7814) scale(1,-1)">
			<title>直线-曲线连接线.508</title>
			<v:userDefs>
				<v:ud v:nameU="visVersion" v:val="VT0(15):26"/>
			</v:userDefs>
			<path d="M0 600.94 L12.61 605.79 L25.4 608.61 L38.38 609.38 L51.55 608.12 L64.91 604.83 L65.25 604.71" class="st13"/>
		</g>
		<g id="shape509-220" v:mID="509" v:groupContext="shape" transform="translate(453.543,-114.572)">
			<title>工作表.509</title>
			<desc>ZL</desc>
			<v:textBlock v:margins="rect(4,4,4,4)" v:tabSpace="42.5197"/>
			<v:textRect cx="34.3141" cy="587.79" width="68.63" height="26.3096"/>
			<rect x="0" y="574.635" width="68.6283" height="26.3096" class="st3"/>
			<text x="21.11" y="594.99" class="st6" v:langID="2052"><v:paragraph v:horizAlign="1"/><v:tabList/>Z<tspan dy="-0.279em"
						class="st15" v:baseFontSize="24">L</tspan></text>		</g>
		<g id="shape510-224" v:mID="510" v:groupContext="shape" transform="translate(242.064,-124.724)">
			<title>工作表.510</title>
			<desc>Z1</desc>
			<v:textBlock v:margins="rect(4,4,4,4)" v:tabSpace="42.5197"/>
			<v:textRect cx="34.3141" cy="587.79" width="68.63" height="26.3096"/>
			<rect x="0" y="574.635" width="68.6283" height="26.3096" class="st3"/>
			<text x="22.41" y="594.99" class="st16" v:langID="2052"><v:paragraph v:horizAlign="1"/><v:tabList/>Z<tspan
						dy="-0.279em" class="st15" v:baseFontSize="24">1</tspan></text>		</g>
		<g id="shape511-228" v:mID="511" v:groupContext="shape" transform="translate(390.818,-244.798)">
			<title>工作表.511</title>
			<desc>Z2</desc>
			<v:textBlock v:margins="rect(4,4,4,4)" v:tabSpace="42.5197"/>
			<v:textRect cx="34.3141" cy="587.79" width="68.63" height="26.3096"/>
			<rect x="0" y="574.635" width="68.6283" height="26.3096" class="st3"/>
			<text x="22.41" y="594.99" class="st17" v:langID="2052"><v:paragraph v:horizAlign="1"/><v:tabList/>Z<tspan
						dy="-0.279em" class="st15" v:baseFontSize="24">2</tspan></text>		</g>
		<g id="shape513-232" v:mID="513" v:groupContext="shape" transform="translate(408.189,-335.507)">
			<title>工作表.513</title>
			<desc>ZIN</desc>
			<v:textBlock v:margins="rect(4,4,4,4)" v:tabSpace="42.5197"/>
			<v:textRect cx="34.3141" cy="587.79" width="68.63" height="26.3096"/>
			<rect x="0" y="574.635" width="68.6283" height="26.3096" class="st3"/>
			<text x="17.64" y="594.99" class="st18" v:langID="2052"><v:paragraph v:horizAlign="1"/><v:tabList/>Z<tspan
						dy="-0.279em" class="st15" v:baseFontSize="24">IN</tspan></text>		</g>
	</g>
</svg>
