<?xml version="1.0" encoding="UTF-8" standalone="no"?>
<!DOCTYPE svg PUBLIC "-//W3C//DTD SVG 1.1//EN" "http://www.w3.org/Graphics/SVG/1.1/DTD/svg11.dtd">
<!-- 由 Microsoft Visio, SVG Export 生成 T-model.svg Page-1 -->
<svg xmlns="http://www.w3.org/2000/svg" xmlns:xlink="http://www.w3.org/1999/xlink" xmlns:ev="http://www.w3.org/2001/xml-events"
		xmlns:v="http://schemas.microsoft.com/visio/2003/SVGExtensions/" width="3.54331in" height="1.9685in"
		viewBox="0 0 255.118 141.732" xml:space="preserve" color-interpolation-filters="sRGB" class="st14">
	<v:documentProperties v:langID="2052" v:metric="true" v:viewMarkup="false">
		<v:userDefs>
			<v:ud v:nameU="msvNoAutoConnect" v:val="VT0(1):26"/>
		</v:userDefs>
	</v:documentProperties>

	<style type="text/css">
	<![CDATA[
		.st1 {stroke:#000000;stroke-linecap:round;stroke-linejoin:round;stroke-width:1.25}
		.st2 {stroke:#000000;stroke-linecap:round;stroke-linejoin:round;stroke-width:1.2}
		.st3 {stroke:#000000;stroke-linecap:butt;stroke-width:1.25}
		.st4 {fill:none;stroke:none;stroke-linecap:round;stroke-linejoin:round;stroke-width:1.25}
		.st5 {fill:#000000;font-family:Calibri;font-size:1.00001em;font-weight:bold}
		.st6 {baseline-shift:-32.4941%;font-size:0.649882em}
		.st7 {font-size:1em}
		.st8 {marker-start:url(#mrkr4-141);stroke:#000000;stroke-linecap:round;stroke-linejoin:round;stroke-width:1.25}
		.st9 {fill:#000000;fill-opacity:1;stroke:#000000;stroke-opacity:1;stroke-width:0.3315649867374}
		.st10 {fill:none;stroke:none;stroke-linecap:round;stroke-linejoin:round;stroke-width:0.75}
		.st11 {fill:#000000;font-family:Calibri;font-size:1.00001em;font-style:italic;font-weight:bold}
		.st12 {fill:#000000;font-family:Calibri;font-size:0.833336em;font-weight:bold}
		.st13 {fill:#000000;stroke:#000000;stroke-linecap:round;stroke-linejoin:round;stroke-width:0.75}
		.st14 {fill:none;fill-rule:evenodd;font-size:12px;overflow:visible;stroke-linecap:square;stroke-miterlimit:3}
	]]>
	</style>

	<defs id="Markers">
		<g id="lend4">
			<path d="M 2 1 L 0 0 L 2 -1 L 2 1 " style="stroke:none"/>
		</g>
		<marker id="mrkr4-141" class="st9" v:arrowType="4" v:arrowSize="2" v:setback="5.744" refX="5.744" orient="auto"
				markerUnits="strokeWidth" overflow="visible">
			<use xlink:href="#lend4" transform="scale(3.016) "/>
		</marker>
	</defs>
	<g v:mID="0" v:index="1" v:groupContext="foregroundPage">
		<title>页-1</title>
		<v:pageProperties v:drawingScale="0.0393701" v:pageScale="0.0393701" v:drawingUnits="24" v:shadowOffsetX="8.50394"
				v:shadowOffsetY="-8.50394"/>
		<v:layer v:name="连接线" v:index="0"/>
		<g id="shape1-1" v:mID="1" v:groupContext="shape" v:layerMember="0" transform="translate(171.189,-101.117)">
			<title>动态连接线.395</title>
			<path d="M0 148.62 L27.91 148.62 L27.91 149.02" class="st1"/>
		</g>
		<g id="group2-4" transform="translate(29.4567,40.8569) rotate(-90) scale(-1,1)" v:mID="2" v:groupContext="group">
			<title>inductor</title>
			<g id="shape3-5" v:mID="3" v:groupContext="shape" transform="translate(13.2468,-19.8425) scale(-1,1)">
				<title>工作表.3</title>
				<path d="M-0 139.84 A3.30709 1.88976 -180 0 0 3.31 141.73 A9.92126 3.77953 -180 0 0 13.23 137.95" class="st2"/>
			</g>
			<g id="shape4-8" v:mID="4" v:groupContext="shape" transform="translate(13.2468,259.843) rotate(180)">
				<title>工作表.4</title>
				<path d="M-0 139.84 A2.48031 1.88976 -180 0 0 2.48 141.73 A10.748 5.66929 -180 0 0 13.23 136.06" class="st2"/>
			</g>
			<g id="shape5-11" v:mID="5" v:groupContext="shape" transform="translate(13.2468,-14.1732) scale(-1,1)">
				<title>工作表.5</title>
				<path d="M-0 139.84 A3.30709 1.88976 -180 0 0 3.31 141.73 A9.92126 3.77953 -180 0 0 13.23 137.95" class="st2"/>
			</g>
			<g id="shape6-14" v:mID="6" v:groupContext="shape" transform="translate(13.2468,265.512) rotate(180)">
				<title>工作表.6</title>
				<path d="M-0 139.84 A2.48031 1.88976 -180 0 0 2.48 141.73 A10.748 5.66929 -180 0 0 13.23 136.06" class="st2"/>
			</g>
			<g id="shape7-17" v:mID="7" v:groupContext="shape" transform="translate(13.2468,-8.50394) scale(-1,1)">
				<title>工作表.7</title>
				<path d="M-0 139.84 A3.30709 1.88976 -180 0 0 3.31 141.73 A9.92126 3.77953 -180 0 0 13.23 137.95" class="st2"/>
			</g>
			<g id="shape8-20" v:mID="8" v:groupContext="shape"
					transform="translate(-49.1985,-14.9969) rotate(-23.1986) scale(-1,1)">
				<title>工作表.8</title>
				<path d="M-0 141.73 A7.35843 3.82191 140.58 0 1 7.2 141.73" class="st2"/>
			</g>
			<g id="shape9-23" v:mID="9" v:groupContext="shape" transform="translate(148.365,115.276) rotate(90) scale(-1,1)">
				<title>工作表.9</title>
				<path d="M0 141.73 L4.72 141.73" class="st2"/>
			</g>
			<g id="shape10-26" v:mID="10" v:groupContext="shape" transform="translate(-135.1,137.008) rotate(-90) scale(-1,1)">
				<title>工作表.10</title>
				<path d="M0 141.73 L4.72 141.73" class="st2"/>
			</g>
			<g id="shape11-29" v:mID="11" v:groupContext="shape" transform="translate(13.2468,271.181) rotate(180)">
				<title>工作表.11</title>
				<path d="M-0 139.84 A3.30709 1.88976 -180 0 0 3.31 141.73 A9.92126 3.77953 -180 0 0 13.23 137.95" class="st2"/>
			</g>
			<g id="shape12-32" v:mID="12" v:groupContext="shape" transform="translate(70.56,12.3267) rotate(27.2161) scale(-1,1)">
				<title>工作表.12</title>
				<path d="M0 139.78 A7.28362 4.81686 -122.35 0 0 7.44 139.78" class="st2"/>
			</g>
		</g>
		<g id="group13-35" transform="translate(-28.4488,40.8569) rotate(-90) scale(-1,1)" v:mID="13" v:groupContext="group">
			<title>inductor.429</title>
			<g id="shape14-36" v:mID="14" v:groupContext="shape" transform="translate(13.2468,-19.8425) scale(-1,1)">
				<title>工作表.14</title>
				<path d="M-0 139.84 A3.30709 1.88976 -180 0 0 3.31 141.73 A9.92126 3.77953 -180 0 0 13.23 137.95" class="st2"/>
			</g>
			<g id="shape15-39" v:mID="15" v:groupContext="shape" transform="translate(13.2468,259.843) rotate(180)">
				<title>工作表.15</title>
				<path d="M-0 139.84 A2.48031 1.88976 -180 0 0 2.48 141.73 A10.748 5.66929 -180 0 0 13.23 136.06" class="st2"/>
			</g>
			<g id="shape16-42" v:mID="16" v:groupContext="shape" transform="translate(13.2468,-14.1732) scale(-1,1)">
				<title>工作表.16</title>
				<path d="M-0 139.84 A3.30709 1.88976 -180 0 0 3.31 141.73 A9.92126 3.77953 -180 0 0 13.23 137.95" class="st2"/>
			</g>
			<g id="shape17-45" v:mID="17" v:groupContext="shape" transform="translate(13.2468,265.512) rotate(180)">
				<title>工作表.17</title>
				<path d="M-0 139.84 A2.48031 1.88976 -180 0 0 2.48 141.73 A10.748 5.66929 -180 0 0 13.23 136.06" class="st2"/>
			</g>
			<g id="shape18-48" v:mID="18" v:groupContext="shape" transform="translate(13.2468,-8.50394) scale(-1,1)">
				<title>工作表.18</title>
				<path d="M-0 139.84 A3.30709 1.88976 -180 0 0 3.31 141.73 A9.92126 3.77953 -180 0 0 13.23 137.95" class="st2"/>
			</g>
			<g id="shape19-51" v:mID="19" v:groupContext="shape"
					transform="translate(-49.1985,-14.9969) rotate(-23.1986) scale(-1,1)">
				<title>工作表.19</title>
				<path d="M-0 141.73 A7.35843 3.82191 140.58 0 1 7.2 141.73" class="st2"/>
			</g>
			<g id="shape20-54" v:mID="20" v:groupContext="shape" transform="translate(148.365,115.276) rotate(90) scale(-1,1)">
				<title>工作表.20</title>
				<path d="M0 141.73 L4.72 141.73" class="st2"/>
			</g>
			<g id="shape21-57" v:mID="21" v:groupContext="shape" transform="translate(-135.1,137.008) rotate(-90) scale(-1,1)">
				<title>工作表.21</title>
				<path d="M0 141.73 L4.72 141.73" class="st2"/>
			</g>
			<g id="shape22-60" v:mID="22" v:groupContext="shape" transform="translate(13.2468,271.181) rotate(180)">
				<title>工作表.22</title>
				<path d="M-0 139.84 A3.30709 1.88976 -180 0 0 3.31 141.73 A9.92126 3.77953 -180 0 0 13.23 137.95" class="st2"/>
			</g>
			<g id="shape23-63" v:mID="23" v:groupContext="shape" transform="translate(70.56,12.3267) rotate(27.2161) scale(-1,1)">
				<title>工作表.23</title>
				<path d="M0 139.78 A7.28362 4.81686 -122.35 0 0 7.44 139.78" class="st2"/>
			</g>
		</g>
		<g id="group24-66" transform="translate(132.993,-51.7323) scale(-1,1)" v:mID="24" v:groupContext="group">
			<title>inductor.440</title>
			<g id="shape25-67" v:mID="25" v:groupContext="shape" transform="translate(13.2468,-19.8425) scale(-1,1)">
				<title>工作表.25</title>
				<path d="M-0 139.84 A3.30709 1.88976 -180 0 0 3.31 141.73 A9.92126 3.77953 -180 0 0 13.23 137.95" class="st2"/>
			</g>
			<g id="shape26-70" v:mID="26" v:groupContext="shape" transform="translate(13.2468,259.843) rotate(180)">
				<title>工作表.26</title>
				<path d="M-0 139.84 A2.48031 1.88976 -180 0 0 2.48 141.73 A10.748 5.66929 -180 0 0 13.23 136.06" class="st2"/>
			</g>
			<g id="shape27-73" v:mID="27" v:groupContext="shape" transform="translate(13.2468,-14.1732) scale(-1,1)">
				<title>工作表.27</title>
				<path d="M-0 139.84 A3.30709 1.88976 -180 0 0 3.31 141.73 A9.92126 3.77953 -180 0 0 13.23 137.95" class="st2"/>
			</g>
			<g id="shape28-76" v:mID="28" v:groupContext="shape" transform="translate(13.2468,265.512) rotate(180)">
				<title>工作表.28</title>
				<path d="M-0 139.84 A2.48031 1.88976 -180 0 0 2.48 141.73 A10.748 5.66929 -180 0 0 13.23 136.06" class="st2"/>
			</g>
			<g id="shape29-79" v:mID="29" v:groupContext="shape" transform="translate(13.2468,-8.50394) scale(-1,1)">
				<title>工作表.29</title>
				<path d="M-0 139.84 A3.30709 1.88976 -180 0 0 3.31 141.73 A9.92126 3.77953 -180 0 0 13.23 137.95" class="st2"/>
			</g>
			<g id="shape30-82" v:mID="30" v:groupContext="shape"
					transform="translate(-49.1985,-14.9969) rotate(-23.1986) scale(-1,1)">
				<title>工作表.30</title>
				<path d="M-0 141.73 A7.35843 3.82191 140.58 0 1 7.2 141.73" class="st2"/>
			</g>
			<g id="shape31-85" v:mID="31" v:groupContext="shape" transform="translate(148.365,115.276) rotate(90) scale(-1,1)">
				<title>工作表.31</title>
				<path d="M0 141.73 L4.72 141.73" class="st2"/>
			</g>
			<g id="shape32-88" v:mID="32" v:groupContext="shape" transform="translate(-135.1,137.008) rotate(-90) scale(-1,1)">
				<title>工作表.32</title>
				<path d="M0 141.73 L4.72 141.73" class="st2"/>
			</g>
			<g id="shape33-91" v:mID="33" v:groupContext="shape" transform="translate(13.2468,271.181) rotate(180)">
				<title>工作表.33</title>
				<path d="M-0 139.84 A3.30709 1.88976 -180 0 0 3.31 141.73 A9.92126 3.77953 -180 0 0 13.23 137.95" class="st2"/>
			</g>
			<g id="shape34-94" v:mID="34" v:groupContext="shape" transform="translate(70.56,12.3267) rotate(27.2161) scale(-1,1)">
				<title>工作表.34</title>
				<path d="M0 139.78 A7.28362 4.81686 -122.35 0 0 7.44 139.78" class="st2"/>
			</g>
		</g>
		<g id="shape35-97" v:mID="35" v:groupContext="shape" v:layerMember="0" transform="translate(113.283,-87.1609)">
			<title>动态连接线.451</title>
			<path d="M0 134.66 L26.72 134.63" class="st1"/>
		</g>
		<g id="shape36-100" v:mID="36" v:groupContext="shape" v:layerMember="0" transform="translate(132.876,-81.4867)">
			<title>动态连接线.452</title>
			<path d="M-6.5 140.31 L-6.5 128.99 L-7.68 128.99" class="st1"/>
		</g>
		<g id="group37-103" transform="translate(122.118,-25.5118)" v:mID="37" v:groupContext="group">
			<title>GND.453</title>
			<g id="group38-104" v:mID="38" v:groupContext="group">
				<title>GND.91</title>
				<g id="shape39-105" v:mID="39" v:groupContext="shape" transform="translate(6.39488E-14,-5.66929)">
					<title>工作表.39</title>
					<path d="M0 141.73 L8.5 141.73" class="st3"/>
				</g>
				<g id="shape40-108" v:mID="40" v:groupContext="shape" transform="translate(1.41732,-2.83465)">
					<title>工作表.40</title>
					<path d="M0 141.73 L5.67 141.73" class="st3"/>
				</g>
				<g id="shape41-111" v:mID="41" v:groupContext="shape" transform="translate(2.83465,0)">
					<title>工作表.41</title>
					<path d="M0 141.73 L2.83 141.73" class="st3"/>
				</g>
			</g>
			<g id="shape42-114" v:mID="42" v:groupContext="shape" transform="translate(-137.48,136.063) rotate(-90)">
				<title>sine source.106</title>
				<path d="M0 141.73 L5.67 141.73" class="st1"/>
			</g>
		</g>
		<g id="shape43-117" v:mID="43" v:groupContext="shape" v:layerMember="0" transform="translate(133.447,-36.8504)">
			<title>动态连接线.459</title>
			<path d="M-7.08 141.73 L-7.1 141.73 L-7.1 126.85" class="st1"/>
		</g>
		<g id="shape44-120" v:mID="44" v:groupContext="shape" transform="translate(133.898,-99.2126)">
			<title>工作表.44</title>
			<desc>Ls-M</desc>
			<v:textBlock v:margins="rect(4,4,4,4)" v:tabSpace="42.5197"/>
			<v:textRect cx="21.7008" cy="131.732" width="43.41" height="20"/>
			<rect x="0" y="121.732" width="43.4016" height="20" class="st4"/>
			<text x="10.53" y="135.33" class="st5" v:langID="2052"><v:paragraph v:horizAlign="1"/><v:tabList/>L<tspan dy="-0.284em"
						class="st6" v:baseFontSize="12">s</tspan><tspan dy="0.185em" class="st7">-</tspan>M</text>		</g>
		<g id="shape45-125" v:mID="45" v:groupContext="shape" transform="translate(75.9921,-99.2126)">
			<title>工作表.45</title>
			<desc>Lp-M</desc>
			<v:textBlock v:margins="rect(4,4,4,4)" v:tabSpace="42.5197"/>
			<v:textRect cx="21.7008" cy="131.732" width="43.41" height="20"/>
			<rect x="0" y="121.732" width="43.4016" height="20" class="st4"/>
			<text x="9.99" y="135.33" class="st5" v:langID="2052"><v:paragraph v:horizAlign="1"/><v:tabList/>L<tspan dy="-0.284em"
						class="st6" v:baseFontSize="12">p</tspan><tspan dy="0.185em" class="st7">-</tspan>M</text>		</g>
		<g id="shape46-130" v:mID="46" v:groupContext="shape" transform="translate(122.118,-57.3228)">
			<title>工作表.46</title>
			<desc>M</desc>
			<v:textBlock v:margins="rect(4,4,4,4)" v:tabSpace="42.5197"/>
			<v:textRect cx="21.7008" cy="131.732" width="43.41" height="20"/>
			<rect x="0" y="121.732" width="43.4016" height="20" class="st4"/>
			<text x="16.46" y="135.33" class="st5" v:langID="2052"><v:paragraph v:horizAlign="1"/><v:tabList/>M</text>		</g>
		<g id="shape47-133" v:mID="47" v:groupContext="shape" v:layerMember="0" transform="translate(82.1024,-101.343)">
			<title>动态连接线.463</title>
			<path d="M0 148.81 L-23.53 148.81 L-23.53 148.82" class="st1"/>
		</g>
		<g id="shape82-136" v:mID="82" v:groupContext="shape" transform="translate(178.441,-94.2333)">
			<title>工作表.82</title>
			<path d="M7.18 141.73 L7.54 141.73 L15.59 141.73" class="st8"/>
		</g>
		<g id="shape83-142" v:mID="83" v:groupContext="shape" transform="translate(76.3937,-94.2616) scale(-1,1)">
			<title>工作表.83</title>
			<path d="M7.18 141.73 L7.54 141.73 L15.59 141.73" class="st8"/>
		</g>
		<g id="shape93-147" v:mID="93" v:groupContext="shape" transform="translate(52.2992,-99.2126)">
			<title>工作表.93</title>
			<desc>ip</desc>
			<v:textBlock v:margins="rect(4,4,4,4)" v:tabSpace="42.5197"/>
			<v:textRect cx="19.8425" cy="134.646" width="39.69" height="14.1732"/>
			<rect x="0" y="127.559" width="39.685" height="14.1732" class="st10"/>
			<text x="16.31" y="138.25" class="st11" v:langID="1033"><v:paragraph v:horizAlign="1"/><v:tabList/>i<tspan
						dy="-0.284em" class="st6" v:baseFontSize="12">p</tspan></text>		</g>
		<g id="shape94-151" v:mID="94" v:groupContext="shape" transform="translate(164.268,-98.5039)">
			<title>工作表.94</title>
			<desc>is</desc>
			<v:textBlock v:margins="rect(4,4,4,4)" v:tabSpace="42.5197"/>
			<v:textRect cx="19.8425" cy="134.646" width="39.69" height="14.1732"/>
			<rect x="0" y="127.559" width="39.685" height="14.1732" class="st10"/>
			<text x="16.83" y="138.25" class="st11" v:langID="1033"><v:paragraph v:horizAlign="1"/><v:tabList/>i<tspan
						dy="-0.284em" class="st6" v:baseFontSize="12">s</tspan></text>		</g>
		<g id="shape95-155" v:mID="95" v:groupContext="shape" transform="translate(31.0394,-63.0709)">
			<title>工作表.95</title>
			<desc>vp</desc>
			<v:textBlock v:margins="rect(4,4,4,4)" v:tabSpace="42.5197"/>
			<v:textRect cx="19.8425" cy="134.646" width="39.69" height="14.1732"/>
			<rect x="0" y="127.559" width="39.685" height="14.1732" class="st10"/>
			<text x="14.97" y="138.25" class="st11" v:langID="1033"><v:paragraph v:horizAlign="1"/><v:tabList/>v<tspan
						dy="-0.284em" class="st6" v:baseFontSize="12">p</tspan></text>		</g>
		<g id="shape96-159" v:mID="96" v:groupContext="shape" transform="translate(32.4567,-87.1654)">
			<title>工作表.96</title>
			<desc>+</desc>
			<v:textBlock v:margins="rect(4,4,4,4)" v:tabSpace="42.5197"/>
			<v:textRect cx="19.8425" cy="134.646" width="39.69" height="14.1732"/>
			<rect x="0" y="127.559" width="39.685" height="14.1732" class="st10"/>
			<text x="17.35" y="137.65" class="st12" v:langID="2052"><v:paragraph v:horizAlign="1"/><v:tabList/>+</text>		</g>
		<g id="shape97-162" v:mID="97" v:groupContext="shape" transform="translate(32.4567,-36)">
			<title>工作表.97</title>
			<desc>-</desc>
			<v:textBlock v:margins="rect(4,4,4,4)" v:tabSpace="42.5197"/>
			<v:textRect cx="19.8425" cy="134.646" width="39.69" height="14.1732"/>
			<rect x="0" y="127.559" width="39.685" height="14.1732" class="st10"/>
			<text x="18.31" y="137.65" class="st12" v:langID="2052"><v:paragraph v:horizAlign="1"/><v:tabList/>-</text>		</g>
		<g id="shape104-165" v:mID="104" v:groupContext="shape" transform="translate(186.803,-61.6535)">
			<title>工作表.104</title>
			<desc>vs</desc>
			<v:textBlock v:margins="rect(4,4,4,4)" v:tabSpace="42.5197"/>
			<v:textRect cx="19.8425" cy="134.646" width="39.69" height="14.1732"/>
			<rect x="0" y="127.559" width="39.685" height="14.1732" class="st10"/>
			<text x="15.49" y="138.25" class="st11" v:langID="1033"><v:paragraph v:horizAlign="1"/><v:tabList/>v<tspan
						dy="-0.284em" class="st6" v:baseFontSize="12">s</tspan></text>		</g>
		<g id="shape105-169" v:mID="105" v:groupContext="shape" transform="translate(187.087,-87.1654)">
			<title>工作表.105</title>
			<desc>+</desc>
			<v:textBlock v:margins="rect(4,4,4,4)" v:tabSpace="42.5197"/>
			<v:textRect cx="19.8425" cy="134.646" width="39.69" height="14.1732"/>
			<rect x="0" y="127.559" width="39.685" height="14.1732" class="st10"/>
			<text x="17.35" y="137.65" class="st12" v:langID="2052"><v:paragraph v:horizAlign="1"/><v:tabList/>+</text>		</g>
		<g id="shape106-172" v:mID="106" v:groupContext="shape" transform="translate(187.087,-36.4252)">
			<title>工作表.106</title>
			<desc>-</desc>
			<v:textBlock v:margins="rect(4,4,4,4)" v:tabSpace="42.5197"/>
			<v:textRect cx="19.8425" cy="134.646" width="39.69" height="14.1732"/>
			<rect x="0" y="127.559" width="39.685" height="14.1732" class="st10"/>
			<text x="18.31" y="137.65" class="st12" v:langID="2052"><v:paragraph v:horizAlign="1"/><v:tabList/>-</text>		</g>
		<g id="shape107-175" v:mID="107" v:groupContext="shape" transform="translate(59.3858,-42.5197)">
			<title>工作表.107</title>
			<path d="M-0 141.73 L69.9 141.73 L140.31 141.73" class="st1"/>
		</g>
		<g id="shape108-178" v:mID="108" v:groupContext="shape" transform="translate(124.244,-40.5354)">
			<title>工作表.108</title>
			<ellipse cx="2.12598" cy="139.606" rx="2.12598" ry="2.12598" class="st13"/>
		</g>
		<g id="shape109-180" v:mID="109" v:groupContext="shape" transform="translate(124.244,-92.126)">
			<title>工作表.109</title>
			<ellipse cx="2.12598" cy="139.606" rx="2.12598" ry="2.12598" class="st13"/>
		</g>
	</g>
</svg>
