<?xml version="1.0" encoding="UTF-8" standalone="no"?>
<!DOCTYPE svg PUBLIC "-//W3C//DTD SVG 1.1//EN" "http://www.w3.org/Graphics/SVG/1.1/DTD/svg11.dtd">
<!-- 由 Microsoft Visio, SVG Export 生成 TLine-model.svg Page-1 -->
<svg xmlns="http://www.w3.org/2000/svg" xmlns:xlink="http://www.w3.org/1999/xlink" xmlns:ev="http://www.w3.org/2001/xml-events"
		xmlns:v="http://schemas.microsoft.com/visio/2003/SVGExtensions/" width="2.71654in" height="2.28346in"
		viewBox="0 0 195.591 164.409" xml:space="preserve" color-interpolation-filters="sRGB" class="st8">
	<v:documentProperties v:langID="2052" v:metric="true" v:viewMarkup="false">
		<v:userDefs>
			<v:ud v:nameU="msvNoAutoConnect" v:val="VT0(1):26"/>
		</v:userDefs>
	</v:documentProperties>

	<style type="text/css">
	<![CDATA[
		.st1 {fill:none;stroke:none;stroke-linecap:round;stroke-linejoin:round;stroke-width:0.75}
		.st2 {fill:#000000;font-family:Calibri;font-size:1.00001em;font-weight:bold}
		.st3 {stroke:#000000;stroke-linecap:round;stroke-linejoin:round;stroke-width:1.25}
		.st4 {fill:#ffffff;stroke:#000000;stroke-linecap:round;stroke-linejoin:round;stroke-width:1.25}
		.st5 {fill:none;stroke:none;stroke-linecap:round;stroke-linejoin:round;stroke-width:1.25}
		.st6 {baseline-shift:-32.4941%;font-size:0.649882em}
		.st7 {font-size:1em}
		.st8 {fill:none;fill-rule:evenodd;font-size:12px;overflow:visible;stroke-linecap:square;stroke-miterlimit:3}
	]]>
	</style>

	<g v:mID="0" v:index="1" v:groupContext="foregroundPage">
		<title>页-1</title>
		<v:pageProperties v:drawingScale="0.0393701" v:pageScale="0.0393701" v:drawingUnits="24" v:shadowOffsetX="8.50394"
				v:shadowOffsetY="-8.50394"/>
		<v:layer v:name="连接线" v:index="0"/>
		<g id="shape149-1" v:mID="149" v:groupContext="shape" transform="translate(-7.56369,-147.402)">
			<title>工作表.149</title>
			<desc>P+</desc>
			<v:textBlock v:margins="rect(4,4,4,4)" v:tabSpace="42.5197"/>
			<v:textRect cx="19.8425" cy="157.323" width="39.69" height="14.1732"/>
			<rect x="0" y="150.236" width="39.685" height="14.1732" class="st1"/>
			<text x="13.66" y="160.92" class="st2" v:langID="2052"><v:paragraph v:horizAlign="1"/><v:tabList/>P+</text>		</g>
		<g id="shape150-4" v:mID="150" v:groupContext="shape" transform="translate(-7.56369,-41.8743)">
			<title>工作表.150</title>
			<desc>P-</desc>
			<v:textBlock v:margins="rect(4,4,4,4)" v:tabSpace="42.5197"/>
			<v:textRect cx="19.8425" cy="157.323" width="39.69" height="14.1732"/>
			<rect x="0" y="150.236" width="39.685" height="14.1732" class="st1"/>
			<text x="14.81" y="160.92" class="st2" v:langID="2052"><v:paragraph v:horizAlign="1"/><v:tabList/>P-</text>		</g>
		<g id="shape351-7" v:mID="351" v:groupContext="shape" v:layerMember="0" transform="translate(26.9291,-147.387)">
			<title>动态连接线.351</title>
			<path d="M0 157.32 L48.47 157.32" class="st3"/>
		</g>
		<g id="shape392-10" v:mID="392" v:groupContext="shape" v:layerMember="0" transform="translate(75.4016,-41.8771)">
			<title>动态连接线.392</title>
			<path d="M0 157.34 L-48.95 157.31" class="st3"/>
		</g>
		<g id="shape435-13" v:mID="435" v:groupContext="shape" transform="translate(22.2001,-152.362)">
			<title>point2</title>
			<path d="M0 162.28 A2.12598 2.12598 0 1 1 4.25 162.28 A2.12598 2.12598 0 1 1 0 162.28 Z" class="st4"/>
		</g>
		<g id="shape436-15" v:mID="436" v:groupContext="shape" transform="translate(22.2001,-46.8552)">
			<title>point2.436</title>
			<path d="M0 162.28 A2.12598 2.12598 0 1 1 4.25 162.28 A2.12598 2.12598 0 1 1 0 162.28 Z" class="st4"/>
		</g>
		<g id="shape467-17" v:mID="467" v:groupContext="shape" transform="translate(207.1,-127.559) scale(-1,1)">
			<title>工作表.467</title>
			<desc>S-</desc>
			<v:textBlock v:margins="rect(4,4,4,4)" v:tabSpace="42.5197"/>
			<v:textRect cx="19.8425" cy="157.323" width="39.69" height="14.1732"/>
			<rect x="0" y="150.236" width="39.685" height="14.1732" class="st1"/>
			<text x="-24.52" y="160.92" transform="scale(-1,1)" class="st2" v:langID="2052"><v:paragraph v:horizAlign="1"/><v:tabList/>S-</text>		</g>
		<g id="shape468-20" v:mID="468" v:groupContext="shape" transform="translate(206.929,-61.7168) scale(-1,1)">
			<title>工作表.468</title>
			<desc>S+</desc>
			<v:textBlock v:margins="rect(4,4,4,4)" v:tabSpace="42.5197"/>
			<v:textRect cx="19.8425" cy="157.323" width="39.69" height="14.1732"/>
			<rect x="0" y="150.236" width="39.685" height="14.1732" class="st1"/>
			<text x="-25.67" y="160.92" transform="scale(-1,1)" class="st2" v:langID="2052"><v:paragraph v:horizAlign="1"/><v:tabList/>S+</text>		</g>
		<g id="shape469-23" v:mID="469" v:groupContext="shape" v:layerMember="0" transform="translate(174.236,-140.74)">
			<title>动态连接线.469</title>
			<path d="M0 171.5 L-31.84 171.5 A2.3622 2.3622 -180 0 0 -36.57 171.5 L-56.31 171.5" class="st3"/>
		</g>
		<g id="shape497-26" v:mID="497" v:groupContext="shape" v:layerMember="0" transform="translate(117.921,-75.8901)">
			<title>动态连接线.497</title>
			<path d="M0 171.5 L19.75 171.5 A2.3622 2.3622 0 0 1 24.47 171.5 L56.59 171.5" class="st3"/>
		</g>
		<g id="shape509-29" v:mID="509" v:groupContext="shape" transform="translate(178.754,-131.717) scale(-1,1)">
			<title>point2.509</title>
			<path d="M0 162.28 A2.12598 2.12598 0 1 1 4.25 162.28 A2.12598 2.12598 0 1 1 0 162.28 Z" class="st4"/>
		</g>
		<g id="shape510-31" v:mID="510" v:groupContext="shape" transform="translate(179.552,-66.6775) scale(-1,1)">
			<title>point2.510</title>
			<path d="M0 162.28 A2.12598 2.12598 0 1 1 4.25 162.28 A2.12598 2.12598 0 1 1 0 162.28 Z" class="st4"/>
		</g>
		<g id="group511-33" transform="translate(239.811,4.252) rotate(90)" v:mID="511" v:groupContext="group">
			<title>T-line</title>
			<g id="shape512-34" v:mID="512" v:groupContext="shape" transform="translate(11.3386,-34.0157) scale(-1,1)">
				<title>工作表.512</title>
				<ellipse cx="5.66929" cy="161.575" rx="5.66929" ry="2.83465" class="st4"/>
			</g>
			<g id="shape513-36" v:mID="513" v:groupContext="shape" transform="translate(-153.071,127.559) rotate(-90) scale(-1,1)">
				<title>工作表.513</title>
				<path d="M0 164.41 L28.35 164.41" class="st3"/>
			</g>
			<g id="shape514-39" v:mID="514" v:groupContext="shape" transform="translate(-164.409,127.559) rotate(-90) scale(-1,1)">
				<title>工作表.514</title>
				<path d="M0 164.41 L28.35 164.41" class="st3"/>
			</g>
			<g id="shape515-42" v:mID="515" v:groupContext="shape" transform="translate(11.3386,-5.66929) scale(-1,1)">
				<title>工作表.515</title>
				<path d="M11.31 161.57 A5.70473 2.5738 0 0 1 5.65 164.41 A5.6546 2.83465 0 0 1 -0 161.57" class="st3"/>
			</g>
			<g id="shape516-45" v:mID="516" v:groupContext="shape" transform="translate(-158.725,164.409) rotate(-90)">
				<title>sine source.22</title>
				<path d="M0 164.41 L5.67 164.41" class="st3"/>
			</g>
			<g id="shape517-48" v:mID="517" v:groupContext="shape" transform="translate(-158.74,127.559) rotate(-90)">
				<title>sine source.117</title>
				<path d="M0 164.41 L5.67 164.41" class="st3"/>
			</g>
		</g>
		<g id="group518-51" transform="translate(239.811,109.779) rotate(90)" v:mID="518" v:groupContext="group">
			<title>T-line.518</title>
			<g id="shape519-52" v:mID="519" v:groupContext="shape" transform="translate(11.3386,-34.0157) scale(-1,1)">
				<title>工作表.519</title>
				<ellipse cx="5.66929" cy="161.575" rx="5.66929" ry="2.83465" class="st4"/>
			</g>
			<g id="shape520-54" v:mID="520" v:groupContext="shape" transform="translate(-153.071,127.559) rotate(-90) scale(-1,1)">
				<title>工作表.520</title>
				<path d="M0 164.41 L28.35 164.41" class="st3"/>
			</g>
			<g id="shape521-57" v:mID="521" v:groupContext="shape" transform="translate(-164.409,127.559) rotate(-90) scale(-1,1)">
				<title>工作表.521</title>
				<path d="M0 164.41 L28.35 164.41" class="st3"/>
			</g>
			<g id="shape522-60" v:mID="522" v:groupContext="shape" transform="translate(11.3386,-5.66929) scale(-1,1)">
				<title>工作表.522</title>
				<path d="M11.31 161.57 A5.70473 2.5738 0 0 1 5.65 164.41 A5.6546 2.83465 0 0 1 -0 161.57" class="st3"/>
			</g>
			<g id="shape523-63" v:mID="523" v:groupContext="shape" transform="translate(-158.725,164.409) rotate(-90)">
				<title>sine source.22</title>
				<path d="M0 164.41 L5.67 164.41" class="st3"/>
			</g>
			<g id="shape524-66" v:mID="524" v:groupContext="shape" transform="translate(-158.74,127.559) rotate(-90)">
				<title>sine source.117</title>
				<path d="M0 164.41 L5.67 164.41" class="st3"/>
			</g>
		</g>
		<g id="group525-69" transform="translate(239.811,25.0871) rotate(90)" v:mID="525" v:groupContext="group">
			<title>T-line.525</title>
			<g id="shape526-70" v:mID="526" v:groupContext="shape" transform="translate(11.3386,-34.0157) scale(-1,1)">
				<title>工作表.526</title>
				<ellipse cx="5.66929" cy="161.575" rx="5.66929" ry="2.83465" class="st4"/>
			</g>
			<g id="shape527-72" v:mID="527" v:groupContext="shape" transform="translate(-153.071,127.559) rotate(-90) scale(-1,1)">
				<title>工作表.527</title>
				<path d="M0 164.41 L28.35 164.41" class="st3"/>
			</g>
			<g id="shape528-75" v:mID="528" v:groupContext="shape" transform="translate(-164.409,127.559) rotate(-90) scale(-1,1)">
				<title>工作表.528</title>
				<path d="M0 164.41 L28.35 164.41" class="st3"/>
			</g>
			<g id="shape529-78" v:mID="529" v:groupContext="shape" transform="translate(11.3386,-5.66929) scale(-1,1)">
				<title>工作表.529</title>
				<path d="M11.31 161.57 A5.70473 2.5738 0 0 1 5.65 164.41 A5.6546 2.83465 0 0 1 -0 161.57" class="st3"/>
			</g>
			<g id="shape530-81" v:mID="530" v:groupContext="shape" transform="translate(-158.725,164.409) rotate(-90)">
				<title>sine source.22</title>
				<path d="M0 164.41 L5.67 164.41" class="st3"/>
			</g>
			<g id="shape531-84" v:mID="531" v:groupContext="shape" transform="translate(-158.74,127.559) rotate(-90)">
				<title>sine source.117</title>
				<path d="M0 164.41 L5.67 164.41" class="st3"/>
			</g>
		</g>
		<g id="group532-87" transform="translate(239.811,89.9367) rotate(90)" v:mID="532" v:groupContext="group">
			<title>T-line.532</title>
			<g id="shape533-88" v:mID="533" v:groupContext="shape" transform="translate(11.3386,-34.0157) scale(-1,1)">
				<title>工作表.533</title>
				<ellipse cx="5.66929" cy="161.575" rx="5.66929" ry="2.83465" class="st4"/>
			</g>
			<g id="shape534-90" v:mID="534" v:groupContext="shape" transform="translate(-153.071,127.559) rotate(-90) scale(-1,1)">
				<title>工作表.534</title>
				<path d="M0 164.41 L28.35 164.41" class="st3"/>
			</g>
			<g id="shape535-93" v:mID="535" v:groupContext="shape" transform="translate(-164.409,127.559) rotate(-90) scale(-1,1)">
				<title>工作表.535</title>
				<path d="M0 164.41 L28.35 164.41" class="st3"/>
			</g>
			<g id="shape536-96" v:mID="536" v:groupContext="shape" transform="translate(11.3386,-5.66929) scale(-1,1)">
				<title>工作表.536</title>
				<path d="M11.31 161.57 A5.70473 2.5738 0 0 1 5.65 164.41 A5.6546 2.83465 0 0 1 -0 161.57" class="st3"/>
			</g>
			<g id="shape537-99" v:mID="537" v:groupContext="shape" transform="translate(-158.725,164.409) rotate(-90)">
				<title>sine source.22</title>
				<path d="M0 164.41 L5.67 164.41" class="st3"/>
			</g>
			<g id="shape538-102" v:mID="538" v:groupContext="shape" transform="translate(-158.74,127.559) rotate(-90)">
				<title>sine source.117</title>
				<path d="M0 164.41 L5.67 164.41" class="st3"/>
			</g>
		</g>
		<g id="shape539-105" v:mID="539" v:groupContext="shape" v:layerMember="0" transform="translate(117.921,-154.488)">
			<title>动态连接线</title>
			<path d="M0 164.41 L22.11 164.41 L22.11 269.94" class="st3"/>
		</g>
		<g id="shape541-108" v:mID="541" v:groupContext="shape" v:layerMember="0" transform="translate(117.921,-41.8743)">
			<title>动态连接线.541</title>
			<path d="M0 157.32 L22.11 157.32" class="st3"/>
		</g>
		<g id="shape543-111" v:mID="543" v:groupContext="shape" v:layerMember="0" transform="translate(41.1024,-95.811)">
			<title>动态连接线.543</title>
			<path d="M0 164.41 L0 126.57 L37.84 126.57" class="st3"/>
		</g>
		<g id="shape545-114" v:mID="545" v:groupContext="shape" transform="translate(70.4566,-87.1795)">
			<title>工作表.545</title>
			<desc>Ze, Zo, γe, γo, L</desc>
			<v:textBlock v:margins="rect(4,4,4,4)" v:tabSpace="42.5197"/>
			<v:textRect cx="26.2048" cy="148.756" width="52.41" height="31.3078"/>
			<rect x="0" y="133.102" width="52.4097" height="31.3078" class="st5"/>
			<text x="4.29" y="145.16" class="st2" v:langID="2052"><v:paragraph v:horizAlign="1"/><v:tabList/>Z<tspan dy="-0.284em"
						class="st6" v:baseFontSize="12">e</tspan><tspan dy="0.185em" class="st7">, Z</tspan><tspan dy="-0.284em"
						class="st6" v:baseFontSize="12">o</tspan><tspan dy="0.185em" class="st7">, </tspan>γ<tspan dy="-0.284em"
						class="st6" v:baseFontSize="12">e</tspan><tspan dy="0.185em" class="st7">, </tspan><tspan x="15.86"
						dy="1.2em" class="st7">γ</tspan><tspan dy="-0.284em" class="st6" v:baseFontSize="12">o</tspan><tspan
						dy="0.185em" class="st7">, L</tspan></text>		</g>
		<g id="shape548-126" v:mID="548" v:groupContext="shape" transform="translate(70.4566,-3.47995)">
			<title>工作表.548</title>
			<desc>Ze, Zo, γe, γo, L</desc>
			<v:textBlock v:margins="rect(4,4,4,4)" v:tabSpace="42.5197"/>
			<v:textRect cx="26.2048" cy="148.756" width="52.41" height="31.3078"/>
			<rect x="0" y="133.102" width="52.4097" height="31.3078" class="st5"/>
			<text x="4.29" y="145.16" class="st2" v:langID="2052"><v:paragraph v:horizAlign="1"/><v:tabList/>Z<tspan dy="-0.284em"
						class="st6" v:baseFontSize="12">e</tspan><tspan dy="0.185em" class="st7">, Z</tspan><tspan dy="-0.284em"
						class="st6" v:baseFontSize="12">o</tspan><tspan dy="0.185em" class="st7">, </tspan>γ<tspan dy="-0.284em"
						class="st6" v:baseFontSize="12">e</tspan><tspan dy="0.185em" class="st7">, </tspan><tspan x="15.86"
						dy="1.2em" class="st7">γ</tspan><tspan dy="-0.284em" class="st6" v:baseFontSize="12">o</tspan><tspan
						dy="0.185em" class="st7">, L</tspan></text>		</g>
		<g id="shape549-138" v:mID="549" v:groupContext="shape" v:layerMember="0" transform="translate(41.1024,-95.811)">
			<title>动态连接线.549</title>
			<path d="M0 164.41 L0 191.43 L34.3 191.43" class="st3"/>
		</g>
	</g>
</svg>
