<?xml version="1.0" encoding="UTF-8" standalone="no"?>
<!DOCTYPE svg PUBLIC "-//W3C//DTD SVG 1.1//EN" "http://www.w3.org/Graphics/SVG/1.1/DTD/svg11.dtd">
<!-- 由 Microsoft Visio, SVG Export 生成 logo3.svg Page-1 -->
<svg xmlns="http://www.w3.org/2000/svg" xmlns:xlink="http://www.w3.org/1999/xlink" xmlns:ev="http://www.w3.org/2001/xml-events"
		xmlns:v="http://schemas.microsoft.com/visio/2003/SVGExtensions/" width="2.3622in" height="2.3622in"
		viewBox="0 0 170.079 170.079" xml:space="preserve" color-interpolation-filters="sRGB" class="st4">
	<v:documentProperties v:langID="2052" v:metric="true" v:viewMarkup="false">
		<v:userDefs>
			<v:ud v:nameU="msvNoAutoConnect" v:val="VT0(1):26"/>
		</v:userDefs>
	</v:documentProperties>

	<style type="text/css">
	<![CDATA[
		.st1 {fill:#000000}
		.st2 {stroke:none;stroke-linecap:butt;stroke-width:0.75}
		.st3 {stroke:#000000;stroke-linecap:round;stroke-linejoin:round;stroke-width:3}
		.st4 {fill:none;fill-rule:evenodd;font-size:12px;overflow:visible;stroke-linecap:square;stroke-miterlimit:3}
	]]>
	</style>

	<g v:mID="0" v:index="1" v:groupContext="foregroundPage">
		<title>页-1</title>
		<v:pageProperties v:drawingScale="0.0393701" v:pageScale="0.0393701" v:drawingUnits="24" v:shadowOffsetX="9"
				v:shadowOffsetY="-9"/>
		<g id="shape12-1" v:mID="12" v:groupContext="shape" transform="translate(9.99535,-9.41834)">
			<title>工作表.12</title>
			<path d="M24.86 143.31 A13.5144 13.5144 -90 0 0 35.42 148.4 L115.22 148.4 A13.5144 13.5144 -90 0 0 128.71 134.91 L128.71
						 55.16 A13.5144 13.5144 -90 0 0 124.6 45.47 A13.5144 13.5144 -180 0 0 114.91 41.37 L35.17 41.37 A13.5144
						 13.5144 -180 0 0 21.68 54.86 L21.68 134.6 A13.5144 13.5144 -180 0 0 24.86 143.31 ZM64.74 140.28 L64.74 140.29
						 L64.74 140.28 ZM29.8 84.73 L29.79 84.73 L29.8 84.73 ZM119.11 51.42 C119.86 52.37 120.3 53.61 120.3 55 L120.3
						 55.3 L120.32 55.3 L120.32 133.5 L120.3 133.5 L120.3 135.02 C120.3 136.54 119.77 137.88 118.89 138.86 C117.91
						 139.75 116.56 140.29 115.02 140.29 L72.67 140.29 L64.74 140.28 L34.96 140.29 C33.56 140.29 32.31 139.82
						 31.36 139.02 C30.38 138.03 29.79 136.63 29.79 135.02 L29.79 92.66 L29.8 84.73 L29.79 54.95 C29.79 53.43
						 30.35 52.07 31.28 51.09 C32.25 50.27 33.55 49.78 35.01 49.78 L35.31 49.78 L35.31 49.76 L113.51 49.76 L113.51
						 49.78 L115.02 49.78 C116.68 49.78 118.12 50.4 119.11 51.42 ZM72.67 140.29 L72.67 140.28 L72.67 140.29 ZM102.74
						 170.08 A4.26728 4.26728 -180 0 0 107 165.81 L107 152.32 L98.48 152.32 L98.48 165.82 A4.26728 4.26728 -180
						 0 0 102.74 170.08 ZM88.51 165.81 L88.51 152.32 L79.99 152.32 L79.99 165.82 A4.26728 4.26728 -180 0 0 84.25
						 170.08 A4.26528 4.26528 -180 0 0 88.51 165.81 ZM105.7 21.17 A4.17521 4.17521 -180 0 0 102.65 19.99 A4.26728
						 4.26728 -180 0 0 98.41 24.26 L98.41 37.75 L106.99 37.75 L106.99 24.26 A4.25727 4.25727 -180 0 0 105.7 21.17
						 ZM84.2 19.99 A4.26728 4.26728 -180 0 0 79.94 24.26 L79.94 37.75 L88.51 37.75 L88.51 24.26 A4.24326 4.24326
						 -180 0 0 84.2 19.99 ZM68.75 21.15 A4.09314 4.09314 -180 0 0 65.76 19.99 A4.26728 4.26728 -180 0 0 61.52
						 24.25 L61.52 37.75 L70.04 37.75 L70.04 24.25 A4.27528 4.27528 -180 0 0 68.75 21.15 ZM50.28 21.17 A4.17521
						 4.17521 -180 0 0 47.23 19.99 A4.26728 4.26728 -180 0 0 42.99 24.26 L42.99 37.75 L51.57 37.75 L51.57 24.26
						 A4.25727 4.25727 -180 0 0 50.28 21.17 ZM51.57 165.81 L51.57 152.32 L43.05 152.32 L43.05 165.82 A4.26127
						 4.26127 -180 1 0 51.57 165.82 L51.57 165.81 ZM51.57 165.82 L51.57 165.81 L51.57 165.82 ZM70.04 165.81 L70.04
						 152.32 L61.52 152.32 L61.52 165.82 A4.26127 4.26127 -180 1 0 70.04 165.82 L70.04 165.81 ZM70.04 165.82 L70.04
						 165.81 L70.04 165.82 ZM29.79 92.66 L29.8 92.66 L29.79 92.66 ZM0 122.73 A4.26728 4.26728 -90 0 0 4.26 126.99
						 L17.76 126.99 L17.76 118.47 L4.26 118.47 A4.26728 4.26728 -90 0 0 0 122.73 ZM4.27 108.51 L17.76 108.51 L17.76
						 99.98 L4.26 99.98 A4.26728 4.26728 -90 0 0 0 104.24 A4.26528 4.26528 -90 0 0 4.27 108.51 ZM148.91 125.69
						 A4.17521 4.17521 -90 0 0 150.08 122.64 A4.26728 4.26728 -90 0 0 145.82 118.4 L132.32 118.4 L132.32 126.98
						 L145.82 126.98 A4.25727 4.25727 -90 0 0 148.91 125.69 ZM150.08 104.19 A4.26728 4.26728 -90 0 0 145.82 99.93
						 L132.32 99.93 L132.32 108.51 L145.82 108.51 A4.24326 4.24326 -90 0 0 150.08 104.19 ZM148.93 88.74 A4.09314
						 4.09314 -90 0 0 150.09 85.75 A4.26728 4.26728 -90 0 0 145.82 81.51 L132.33 81.51 L132.33 90.03 L145.82 90.03
						 A4.27528 4.27528 -90 0 0 148.93 88.74 ZM148.91 70.27 A4.17521 4.17521 -90 0 0 150.08 67.22 A4.26728 4.26728
						 -90 0 0 145.82 62.98 L132.32 62.98 L132.32 71.56 L145.82 71.56 A4.25727 4.25727 -90 0 0 148.91 70.27 ZM4.27
						 71.56 L17.76 71.56 L17.76 63.04 L4.26 63.04 A4.26127 4.26127 -90 1 0 4.26 71.56 L4.27 71.56 ZM4.26 71.56
						 L4.27 71.56 L4.26 71.56 ZM4.27 90.03 L17.76 90.03 L17.76 81.51 L4.26 81.51 A4.26127 4.26127 -90 1 0 4.26
						 90.03 L4.27 90.03 ZM4.26 90.03 L4.27 90.03 L4.26 90.03 Z" class="st1"/>
			<path d="M24.86 143.31 A13.5144 13.5144 -90 0 0 35.42 148.4 L115.22 148.4 A13.5144 13.5144 -90 0 0 128.71 134.91 L128.71
						 55.16 A13.5144 13.5144 -90 0 0 124.6 45.47 A13.5144 13.5144 -180 0 0 114.91 41.37 L35.17 41.37 A13.5144
						 13.5144 -180 0 0 21.68 54.86 L21.68 134.6 A13.5144 13.5144 -180 0 0 24.86 143.31M64.74 140.28 L64.74 140.29M29.8
						 84.73 L29.79 84.73M119.11 51.42 C119.86 52.37 120.3 53.61 120.3 55 L120.3 55.3 L120.32 55.3 L120.32 133.5
						 L120.3 133.5 L120.3 135.02 C120.3 136.54 119.77 137.88 118.89 138.86 C117.91 139.75 116.56 140.29 115.02
						 140.29 L72.67 140.29 L64.74 140.28 L34.96 140.29 C33.56 140.29 32.31 139.82 31.36 139.02 C30.38 138.03 29.79
						 136.63 29.79 135.02 L29.79 92.66 L29.8 84.73 L29.79 54.95 C29.79 53.43 30.35 52.07 31.28 51.09 C32.25 50.27
						 33.55 49.78 35.01 49.78 L35.31 49.78 L35.31 49.76 L113.51 49.76 L113.51 49.78 L115.02 49.78 C116.68 49.78
						 118.12 50.4 119.11 51.42M72.67 140.29 L72.67 140.28M102.74 170.08 A4.26728 4.26728 -180 0 0 107 165.81 L107
						 152.32 L98.48 152.32 L98.48 165.82 A4.26728 4.26728 -180 0 0 102.74 170.08M88.51 165.81 L88.51 152.32 L79.99
						 152.32 L79.99 165.82 A4.26728 4.26728 -180 0 0 84.25 170.08 A4.26528 4.26528 -180 0 0 88.51 165.81M105.7
						 21.17 A4.17521 4.17521 -180 0 0 102.65 19.99 A4.26728 4.26728 -180 0 0 98.41 24.26 L98.41 37.75 L106.99
						 37.75 L106.99 24.26 A4.25727 4.25727 -180 0 0 105.7 21.17M84.2 19.99 A4.26728 4.26728 -180 0 0 79.94 24.26
						 L79.94 37.75 L88.51 37.75 L88.51 24.26 A4.24326 4.24326 -180 0 0 84.2 19.99M68.75 21.15 A4.09314 4.09314
						 -180 0 0 65.76 19.99 A4.26728 4.26728 -180 0 0 61.52 24.25 L61.52 37.75 L70.04 37.75 L70.04 24.25 A4.27528
						 4.27528 -180 0 0 68.75 21.15M50.28 21.17 A4.17521 4.17521 -180 0 0 47.23 19.99 A4.26728 4.26728 -180 0 0
						 42.99 24.26 L42.99 37.75 L51.57 37.75 L51.57 24.26 A4.25727 4.25727 -180 0 0 50.28 21.17M51.57 165.81 L51.57
						 152.32 L43.05 152.32 L43.05 165.82 A4.26127 4.26127 -180 1 0 51.57 165.82M51.57 165.82 L51.57 165.81M70.04
						 165.81 L70.04 152.32 L61.52 152.32 L61.52 165.82 A4.26127 4.26127 -180 1 0 70.04 165.82M70.04 165.82 L70.04
						 165.81M29.79 92.66 L29.8 92.66M0 122.73 A4.26728 4.26728 -90 0 0 4.26 126.99 L17.76 126.99 L17.76 118.47
						 L4.26 118.47 A4.26728 4.26728 -90 0 0 0 122.73M4.27 108.51 L17.76 108.51 L17.76 99.98 L4.26 99.98 A4.26728
						 4.26728 -90 0 0 0 104.24 A4.26528 4.26528 -90 0 0 4.27 108.51M148.91 125.69 A4.17521 4.17521 -90 0 0 150.08
						 122.64 A4.26728 4.26728 -90 0 0 145.82 118.4 L132.32 118.4 L132.32 126.98 L145.82 126.98 A4.25727 4.25727
						 -90 0 0 148.91 125.69M150.08 104.19 A4.26728 4.26728 -90 0 0 145.82 99.93 L132.32 99.93 L132.32 108.51 L145.82
						 108.51 A4.24326 4.24326 -90 0 0 150.08 104.19M148.93 88.74 A4.09314 4.09314 -90 0 0 150.09 85.75 A4.26728
						 4.26728 -90 0 0 145.82 81.51 L132.33 81.51 L132.33 90.03 L145.82 90.03 A4.27528 4.27528 -90 0 0 148.93 88.74M148.91
						 70.27 A4.17521 4.17521 -90 0 0 150.08 67.22 A4.26728 4.26728 -90 0 0 145.82 62.98 L132.32 62.98 L132.32
						 71.56 L145.82 71.56 A4.25727 4.25727 -90 0 0 148.91 70.27M4.27 71.56 L17.76 71.56 L17.76 63.04 L4.26 63.04
						 A4.26127 4.26127 -90 1 0 4.26 71.56M4.26 71.56 L4.27 71.56M4.27 90.03 L17.76 90.03 L17.76 81.51 L4.26 81.51
						 A4.26127 4.26127 -90 1 0 4.26 90.03M4.26 90.03 L4.27 90.03" class="st2"/>
		</g>
		<g id="shape18-4" v:mID="18" v:groupContext="shape" transform="translate(36.8504,-96.378)">
			<title>工作表.18</title>
			<path d="M0 170.08 L97.13 170.08" class="st3"/>
		</g>
		<g id="shape19-7" v:mID="19" v:groupContext="shape" transform="translate(36.8504,-102.047)">
			<title>工作表.19</title>
			<path d="M0 170.08 L97.13 170.08" class="st3"/>
		</g>
		<g id="shape20-10" v:mID="20" v:groupContext="shape" transform="translate(36.3189,-107.717)">
			<title>工作表.20</title>
			<path d="M0 170.08 L97.13 170.08" class="st3"/>
		</g>
		<g id="shape21-13" v:mID="21" v:groupContext="shape" transform="translate(35.4331,-113.386)">
			<title>工作表.21</title>
			<path d="M0 170.08 L97.13 170.08" class="st3"/>
		</g>
		<g id="shape22-16" v:mID="22" v:groupContext="shape" transform="translate(-82.2047,74.1732) rotate(-90) scale(-1,1)">
			<title>工作表.22</title>
			<path d="M0 170.08 L62.38 170.08" class="st3"/>
		</g>
		<g id="shape23-19" v:mID="23" v:groupContext="shape" transform="translate(-87.874,68.5039) rotate(-90) scale(-1,1)">
			<title>工作表.23</title>
			<path d="M0 170.08 L66.8 170.08" class="st3"/>
		</g>
		<g id="shape24-22" v:mID="24" v:groupContext="shape" transform="translate(-93.5433,62.3622) rotate(-90) scale(-1,1)">
			<title>工作表.24</title>
			<path d="M0 170.08 L72.84 170.08" class="st3"/>
		</g>
		<g id="shape25-25" v:mID="25" v:groupContext="shape" transform="translate(-99.2126,56.6929) rotate(-90) scale(-1,1)">
			<title>工作表.25</title>
			<path d="M0 170.08 L78.99 170.08" class="st3"/>
		</g>
		<g id="shape27-28" v:mID="27" v:groupContext="shape" transform="translate(-60,107.04) rotate(-90) scale(-1,1)">
			<title>工作表.27</title>
			<path d="M0 170.08 L28.9 170.08" class="st3"/>
		</g>
		<g id="shape28-31" v:mID="28" v:groupContext="shape" transform="translate(-65.6693,104.424) rotate(-90) scale(-1,1)">
			<title>工作表.28</title>
			<path d="M0 170.08 L31.27 170.08" class="st3"/>
		</g>
		<g id="shape31-34" v:mID="31" v:groupContext="shape" transform="translate(-5.70015,-17.9928) rotate(-45) scale(-1,1)">
			<title>工作表.31</title>
			<path d="M0 170.08 L6.2 170.08" class="st3"/>
		</g>
		<g id="shape32-37" v:mID="32" v:groupContext="shape" transform="translate(-8.171,-23.5395) rotate(-45) scale(-1,1)">
			<title>工作表.32</title>
			<path d="M0 170.08 L10.78 170.08" class="st3"/>
		</g>
		<g id="shape37-40" v:mID="37" v:groupContext="shape" transform="translate(120.234,-67.8077) scale(-1,1)">
			<title>工作表.37</title>
			<path d="M0 170.08 L5.18 170.08" class="st3"/>
		</g>
		<g id="shape38-43" v:mID="38" v:groupContext="shape" transform="translate(120.423,-73.477) scale(-1,1)">
			<title>工作表.38</title>
			<path d="M0 170.08 L8.03 170.08" class="st3"/>
		</g>
		<g id="shape39-46" v:mID="39" v:groupContext="shape" transform="translate(-70.8661,101.306) rotate(-90) scale(-1,1)">
			<title>工作表.39</title>
			<path d="M0 170.08 L31.27 170.08" class="st3"/>
		</g>
		<g id="shape40-49" v:mID="40" v:groupContext="shape" transform="translate(-10.8623,-29.1632) rotate(-45) scale(-1,1)">
			<title>工作表.40</title>
			<path d="M0 170.08 L14.33 170.08" class="st3"/>
		</g>
		<g id="shape41-52" v:mID="41" v:groupContext="shape" transform="translate(120.826,-79.3701) scale(-1,1)">
			<title>工作表.41</title>
			<path d="M0 170.08 L10.85 170.08" class="st3"/>
		</g>
	</g>
</svg>
